<?xml version="1.0" encoding="UTF-8"?>
<svg version="1.1" xmlns="http://www.w3.org/2000/svg" width="1024" height="1024">
<path d="M0 0 C2.13720799 3.20581199 3.18761805 6.30333028 4.3190918 9.9362793 C4.65379234 10.99101692 4.65379234 10.99101692 4.99525452 12.06706238 C5.73461291 14.4013238 6.46702078 16.73770228 7.19921875 19.07421875 C7.71733379 20.71648297 8.23579785 22.35863711 8.7545929 24.00068665 C9.84613067 27.45908121 10.93441755 30.91847639 12.02026367 34.37866211 C13.38919638 38.74056451 14.76443541 43.10044363 16.14191055 47.45965481 C21.0252167 62.9184414 25.88448132 78.37492579 30.34846497 93.96096802 C32.88806111 102.7606138 35.63450925 111.49150939 38.3984375 120.22265625 C38.63969423 120.98502783 38.88095097 121.74739941 39.12951851 122.53287315 C41.37363791 129.62064319 43.62544923 136.70596563 45.87890625 143.79077148 C47.3683356 148.47521458 48.85399803 153.16083831 50.3359375 157.84765625 C50.57810816 158.61339336 50.82027882 159.37913048 51.06978798 160.16807175 C54.67771641 171.5963911 58.10437861 183.06769536 61.40696144 194.58767128 C64.40740051 205.05330565 67.61737674 215.42323996 71.0625 225.75 C71.78965061 227.93508878 72.515023 230.12069302 73.23497009 232.3081665 C73.8632857 234.21698277 74.49791809 236.12371658 75.13305664 238.03027344 C76 241 76 241 76 244 C77.17747299 243.99333817 78.35494598 243.98667633 79.56809998 243.97981262 C90.73232862 243.91866815 101.89652274 243.87386862 113.06088161 243.84456348 C118.79887883 243.82899036 124.53673952 243.80790688 130.2746582 243.77368164 C135.82492961 243.74078754 141.37507074 243.7230844 146.92543221 243.71536827 C149.02983713 243.70987818 151.13423594 243.69915962 153.23858452 243.68280983 C181.93601859 243.46896459 207.9279054 249.45308021 230.12109375 268.5703125 C233.50119017 271.42298546 237.00989371 274.05531823 240.5625 276.6875 C246.43364332 281.05226848 252.23701536 285.49341529 258 290 C264.20027412 294.84421161 270.44635607 299.61674105 276.75219727 304.32250977 C285.88791845 311.14487939 294.93897375 318.0789367 304 325 C304.78648926 325.60054199 305.57297852 326.20108398 306.38330078 326.81982422 C316.69758263 334.69654686 326.99604243 342.59355975 337.26953125 350.5234375 C338.36712213 351.36987644 339.46477822 352.21623082 340.5625 353.0625 C341.09875 353.47636963 341.635 353.89023926 342.1875 354.31665039 C345.84288929 357.13065846 349.53974773 359.88345745 353.25 362.625 C362.66306615 369.72195645 370.274392 376.4692496 376 387 C376 387.99 376 388.98 376 390 C420.88 390 465.76 390 512 390 C510.95138397 394.19446414 510.75910554 394.58698195 507.5625 396.99609375 C506.84126953 397.5478125 506.12003906 398.09953125 505.37695312 398.66796875 C504.59255859 399.25191406 503.80816406 399.83585937 503 400.4375 C502.18982422 401.05367188 501.37964844 401.66984375 500.54492188 402.3046875 C498.85866499 403.58608551 497.16916203 404.86322222 495.4765625 406.13623047 C492.49540619 408.37973868 489.53188713 410.64561389 486.57006836 412.91455078 C485.18135274 413.97815725 483.7915265 415.04031506 482.40063477 416.10107422 C477.21907886 420.05376718 472.07410788 424.05164103 466.9375 428.0625 C460.41933174 433.15050671 453.84730093 438.1588086 447.21264648 443.09399414 C444.54106242 445.08284396 441.89869996 447.08162728 439.3046875 449.171875 C437.24021289 450.80945825 435.16606516 452.22516909 432.9375 453.625 C428.54073846 456.51242549 424.57705092 459.79304818 420.57055664 463.19482422 C416.57266758 466.57065204 412.42784528 469.64146594 408.171875 472.6796875 C404.09208082 475.66416748 400.10905095 478.76438675 396.125 481.875 C395.34084717 482.48714355 394.55669434 483.09928711 393.7487793 483.72998047 C392.20329385 484.93697389 390.65796118 486.14416298 389.11279297 487.3515625 C374.5337579 498.72637701 359.80875693 509.92632159 345 521 C330.44746864 531.88597197 316.01868749 542.93380153 301.6875 554.109375 C300.73037109 554.85477539 300.73037109 554.85477539 299.75390625 555.61523438 C298.19116997 556.84906514 296.65596927 558.11759077 295.125 559.390625 C293 561 293 561 291 561 C294.69410817 565.03706251 299.02558148 568.05919334 303.4375 571.25 C310.73696612 576.5816787 317.98899969 581.97015467 325.1875 587.4375 C326.04722412 588.08686523 326.90694824 588.73623047 327.79272461 589.40527344 C343.33531496 601.23712915 355.11172015 613.86128155 358.47265625 633.8046875 C360.57678829 652.04049855 354.57459761 666.50906325 344.4375 681.1875 C343.6191196 682.39067948 342.80174596 683.59454433 341.98535156 684.79907227 C340.38435847 687.15667123 338.77678462 689.50950831 337.16162109 691.85742188 C335.38775305 694.43628222 333.62229964 697.02038469 331.86328125 699.609375 C326.38299807 707.65303251 320.77955169 715.61164021 315.19042969 723.57983398 C311.15627452 729.33463251 307.16050513 735.11412521 303.19018555 740.91308594 C299.43675538 746.38635195 295.62704053 751.8192058 291.8125 757.25 C287.46901722 763.43566257 283.20473228 769.65564573 279.04296875 775.96484375 C276.48260924 779.76866658 273.83761533 783.50841425 271.1875 787.25 C270.68371826 787.96687988 270.17993652 788.68375977 269.66088867 789.42236328 C267.06958152 793.10563598 264.44578154 796.75564348 261.75 800.36328125 C260.72903844 801.76292731 259.70820035 803.16266344 258.6875 804.5625 C258.20112061 805.1925293 257.71474121 805.82255859 257.21362305 806.47167969 C254.83714791 809.77557042 254.00586876 811.45537863 253.9609375 815.625 C254.25902051 817.09396012 254.61240525 818.55208162 255 820 C255.24693604 820.92611084 255.49387207 821.85222168 255.74829102 822.80639648 C256.75758328 826.36740202 257.84074702 829.90278995 258.9375 833.4375 C259.36815142 834.84308452 259.7984768 836.24876896 260.22851562 837.65454102 C265.1080438 853.54437736 270.17342615 869.37707474 275.2003479 885.22070312 C279.65084974 899.25359425 284.05731078 913.28855717 288.125 927.4375 C292.17237276 941.51030273 296.62781247 955.43997864 301.125 969.375 C317 1018.57538518 317 1018.57538518 317 1024 C312.94712239 1023.4141575 310.5374392 1021.31711916 307.375 1018.8125 C306.81506348 1018.37325195 306.25512695 1017.93400391 305.67822266 1017.48144531 C304.44355976 1016.51257094 303.21107656 1015.54091427 301.98046875 1014.56689453 C298.45720637 1011.77938245 294.91717796 1009.0134149 291.375 1006.25 C290.62049561 1005.660979 289.86599121 1005.07195801 289.08862305 1004.46508789 C282.73303114 999.52451708 276.27174021 994.7380551 269.77514648 989.98510742 C264.07400794 985.80995056 258.46707281 981.53102653 252.890625 977.19140625 C249.26415391 974.44214912 245.52557254 971.88495736 241.73046875 969.375 C240.87388672 968.694375 240.87388672 968.694375 240 968 C240 967.34 240 966.68 240 966 C239.43925781 965.73960937 238.87851562 965.47921875 238.30078125 965.2109375 C230.07149739 960.87973547 222.83114569 954.30747413 215.61108398 948.49023438 C208.44708295 942.72794466 201.08093276 937.25459911 193.6640625 931.82421875 C184.12663087 924.83464668 174.70900037 917.72255661 165.3984375 910.43359375 C161.12430745 907.08882752 156.81692585 903.78925282 152.5 900.5 C146.69942654 896.07901514 140.93422566 891.61571043 135.1875 887.125 C128.53154981 881.92946735 121.81734184 876.81628394 115.0625 871.75 C114.20358154 871.10562988 113.34466309 870.46125977 112.4597168 869.79736328 C106.35528148 865.23271353 102.7230242 862.70227214 94.92634583 862.67874146 C94.09385982 862.66856582 93.26137381 862.65839018 92.40366095 862.64790618 C89.60350529 862.61642029 86.803453 862.59939734 84.00317383 862.58251953 C81.99915408 862.56344441 79.99514095 862.54366217 77.99113464 862.52322388 C71.39651327 862.46039209 64.80184114 862.4198946 58.20703125 862.3828125 C56.5224886 862.37292053 56.5224886 862.37292053 54.80391479 862.36282873 C44.20445826 862.30123286 33.60499029 862.24783298 23.00540638 862.21399117 C9.46563668 862.17025262 -4.07253903 862.08649985 -17.61167163 861.94711602 C-27.13970712 861.85237747 -36.6673148 861.80408896 -46.19580632 861.78959739 C-51.8811925 861.7797175 -57.56478363 861.74988763 -63.24965477 861.6701088 C-68.60938402 861.59589061 -73.96631192 861.57970799 -79.32645988 861.60612106 C-81.28233857 861.60601393 -83.23834885 861.58573175 -85.19375229 861.5426178 C-99.08836787 861.25291154 -106.99105974 864.12950651 -117.31948817 873.50470138 C-119.88852831 875.79060149 -122.62246985 877.81473666 -125.375 879.875 C-129.00727499 882.67665587 -132.63006323 885.48991792 -136.24609375 888.3125 C-144.21781207 894.53311045 -152.21945804 900.70204811 -160.32275391 906.75048828 C-165.36320359 910.514241 -170.35576393 914.336427 -175.3359375 918.1796875 C-186.22571692 926.57402115 -197.16829083 934.90133536 -208.1875 943.125 C-216.88873614 949.62532876 -225.4435401 956.31093459 -234 963 C-244.60631904 971.29155546 -255.2591576 979.5051776 -266.05419922 987.54980469 C-275.72020216 994.75382696 -285.34687233 1002.00840752 -294.9375 1009.3125 C-295.80141357 1009.97024414 -296.66532715 1010.62798828 -297.55541992 1011.30566406 C-298.39177979 1011.94342773 -299.22813965 1012.58119141 -300.08984375 1013.23828125 C-300.90437012 1013.85783691 -301.71889648 1014.47739258 -302.55810547 1015.11572266 C-304.22783827 1016.40416475 -305.88259446 1017.71218833 -307.52392578 1019.03662109 C-308.32169434 1019.67809082 -309.11946289 1020.31956055 -309.94140625 1020.98046875 C-310.65111572 1021.56078857 -311.3608252 1022.1411084 -312.09204102 1022.73901367 C-314 1024 -314 1024 -317 1024 C-315.74034151 1017.98099236 -314.2333746 1012.09893016 -312.4375 1006.21875 C-312.18137939 1005.37276245 -311.92525879 1004.5267749 -311.66137695 1003.65515137 C-307.50047816 989.98684874 -303.13729631 976.38054679 -298.81347656 962.76318359 C-293.70524059 946.66738134 -288.64859395 930.56318247 -283.9387207 914.34570312 C-280.68262128 903.15746778 -277.21521797 892.04272632 -273.6875 880.9375 C-273.13200189 879.18429534 -272.57666259 877.43104036 -272.02148438 875.67773438 C-270.68281041 871.45124343 -269.34202167 867.22542909 -268 863 C-268.74892549 863.00368717 -269.49785097 863.00737434 -270.26947117 863.01117325 C-288.55068165 863.09977674 -306.83184889 863.16583185 -325.1132288 863.20724869 C-333.95422676 863.22781348 -342.79508079 863.2558167 -351.63598633 863.30175781 C-359.34792368 863.34181299 -367.05975671 863.36747694 -374.77179521 863.37635398 C-378.84967917 863.38153735 -382.92726486 863.39359075 -387.00505257 863.42292023 C-390.8554681 863.45038587 -394.70546695 863.45838333 -398.55597115 863.45243073 C-399.95745623 863.45351723 -401.35895754 863.46128381 -402.7603569 863.4768219 C-416.72012942 863.62380507 -429.48455756 861.27417929 -441 853 C-441.65274902 852.53400391 -442.30549805 852.06800781 -442.97802734 851.58789062 C-445.20443229 849.98944605 -447.41748792 848.37442757 -449.625 846.75 C-450.34937256 846.21826172 -451.07374512 845.68652344 -451.82006836 845.13867188 C-452.82565796 844.38166992 -452.82565796 844.38166992 -453.8515625 843.609375 C-454.45822754 843.15530273 -455.06489258 842.70123047 -455.68994141 842.23339844 C-456.12226074 841.82637695 -456.55458008 841.41935547 -457 841 C-457 840.34 -457 839.68 -457 839 C-457.99 838.67 -458.98 838.34 -460 838 C-461.53515625 835.92578125 -461.53515625 835.92578125 -463.0625 833.3125 C-463.56910156 832.46300781 -464.07570313 831.61351562 -464.59765625 830.73828125 C-470.67242624 818.87640447 -468.80256104 805.811495 -464.98269653 793.55194092 C-464.23351296 791.23739652 -463.46183705 788.93123588 -462.6875 786.625 C-462.18062155 785.06194873 -461.67605608 783.49814548 -461.17382812 781.93359375 C-460.44266457 779.65817438 -459.70967905 777.38354635 -458.9667511 775.11193848 C-457.41314635 770.35542837 -456.02574359 765.58083115 -454.74975586 760.74169922 C-453.14219742 754.8631967 -451.26506556 749.06304611 -449.4375 743.25 C-448.99099903 741.82382724 -448.54454832 740.39763873 -448.09814453 738.97143555 C-445.62684118 731.09085222 -443.10534796 723.22849737 -440.53930664 715.37817383 C-434.71055627 697.52770222 -429.30378656 679.55644177 -423.8996582 661.57348633 C-419.06842313 645.50168623 -414.13304117 629.46836044 -409.08837891 613.46240234 C-407.29295605 607.75071841 -405.52175734 602.03156041 -403.75 596.3125 C-403.01312031 593.93616707 -402.27613674 591.55986635 -401.5390625 589.18359375 C-401.24791313 588.24492462 -401.24791313 588.24492462 -400.95088196 587.28729248 C-398.31454069 578.78878232 -395.67427964 570.29149171 -393.03237915 561.79470825 C-392.12966917 558.89002417 -391.22822171 555.98495044 -390.3269043 553.07983398 C-387.46186209 543.85363093 -384.57381953 534.63604697 -381.62109375 525.4375 C-381.09799284 523.80099249 -380.57503954 522.16443779 -380.05224609 520.52783203 C-379.08157748 517.48918644 -378.09983197 514.45442963 -377.11181641 511.42138672 C-376.67955211 510.07013434 -376.24772148 508.71874312 -375.81640625 507.3671875 C-375.43943604 506.20300293 -375.06246582 505.03881836 -374.67407227 503.83935547 C-373.72445464 500.94862562 -373.72445464 500.94862562 -375 498 C-376.99371825 496.65729179 -378.9934562 495.32346506 -381 494 C-381 493.34 -381 492.68 -381 492 C-381.72703125 491.74863281 -382.4540625 491.49726563 -383.203125 491.23828125 C-386.23208063 489.89724922 -388.23962092 488.3421088 -390.75 486.1875 C-395.42998788 482.26558245 -400.19963566 478.50502534 -405.0625 474.8125 C-411.20089421 470.1469339 -417.30056388 465.43602454 -423.375 460.6875 C-428.8843279 456.38682744 -434.43683838 452.17899128 -440.1171875 448.10546875 C-443.85199748 445.37774168 -447.51901444 442.566008 -451.1875 439.75 C-457.08536615 435.22476434 -462.9961443 430.71804038 -468.9375 426.25 C-469.95783325 425.47994629 -469.95783325 425.47994629 -470.9987793 424.69433594 C-474.36112583 422.13085821 -474.36112583 422.13085821 -478 420 C-478 419.34 -478 418.68 -478 418 C-478.58644287 417.72397949 -479.17288574 417.44795898 -479.77709961 417.16357422 C-481.90256174 416.05100393 -483.66938776 414.8446552 -485.56640625 413.3828125 C-488.80345137 410.91055963 -492.0615704 408.47210039 -495.33984375 406.0546875 C-497.20606431 404.66190729 -499.07194507 403.26867166 -500.9375 401.875 C-501.89462891 401.17246094 -502.85175781 400.46992188 -503.83789062 399.74609375 C-504.74603516 399.06417969 -505.65417969 398.38226563 -506.58984375 397.6796875 C-507.41347412 397.06851074 -508.23710449 396.45733398 -509.08569336 395.82763672 C-511 394 -511 394 -512 390 C-454.91 390 -397.82 390 -339 390 C-338.34 386.37 -337.68 382.74 -337 379 C-335.83391903 375.25406925 -334.61488066 371.57184171 -333.3125 367.875 C-328.68012376 354.3615253 -324.47819008 340.72598405 -320.3125 327.0625 C-319.99511871 326.02277039 -319.67773743 324.98304077 -319.35073853 323.9118042 C-315.87846915 312.53189059 -312.42895151 301.14529501 -309.03022766 289.74317932 C-307.38302782 284.22929083 -305.67574659 278.73584142 -303.9375 273.25 C-303.70015137 272.49832047 -303.46280273 271.74664093 -303.21826172 270.97218323 C-301.5539391 265.7903707 -299.02894421 261.49988964 -296 257 C-295.1646875 255.700625 -295.1646875 255.700625 -294.3125 254.375 C-288.06457578 247.95821297 -279.94211039 244.30641804 -271.03080845 243.75390434 C-269.5550308 243.74559376 -268.07916581 243.74808734 -266.60340881 243.75949097 C-265.78480092 243.75778212 -264.96619303 243.75607327 -264.12277883 243.75431263 C-261.39434337 243.75103233 -258.66615675 243.76199727 -255.93774414 243.77294922 C-253.97614549 243.77351365 -252.01454641 243.77319615 -250.052948 243.77206421 C-244.73737919 243.77149094 -239.42190085 243.78324121 -234.10635304 243.79721212 C-228.54766757 243.80972366 -222.98897997 243.81089032 -217.43028259 243.81326294 C-206.90841185 243.81947645 -196.38658272 243.83588557 -185.8647303 243.85596192 C-173.88414877 243.87832489 -161.90356524 243.88931536 -149.92296803 243.89935279 C-125.28195563 243.92025188 -100.64098015 243.9554254 -76 244 C-75.79976069 243.18824845 -75.59952139 242.37649691 -75.39321423 241.54014683 C-75.12747254 240.46878451 -74.86173086 239.3974222 -74.5879364 238.29359436 C-74.3258221 237.23434281 -74.06370779 236.17509127 -73.79365063 235.08374119 C-72.72708002 230.93956541 -71.46659843 226.87703682 -70.14453125 222.80859375 C-69.8792009 221.97957047 -69.61387054 221.15054718 -69.34049988 220.29640198 C-68.5014238 217.67559887 -67.65751654 215.0563932 -66.8125 212.4375 C-63.14627215 201.06312911 -59.58088151 189.67037713 -56.21484375 178.203125 C-53.25825718 168.14065369 -50.19524451 158.11697434 -47.046875 148.11328125 C-46.83380266 147.43621061 -46.62073032 146.75913998 -46.40120125 146.06155205 C-45.30454021 142.57860737 -44.20623656 139.09618312 -43.1071167 135.61401367 C-40.78022377 128.24107497 -38.46248882 120.86525952 -36.1484375 113.48828125 C-35.92122135 112.76395023 -35.6940052 112.03961922 -35.45990372 111.29333878 C-31.43094836 98.44151004 -27.51097171 85.55952998 -23.67660522 72.64834595 C-19.22835193 57.67125025 -14.59295443 42.7567816 -9.85406494 27.86914062 C-8.77426473 24.47239185 -7.71361071 21.07102627 -6.67919922 17.66015625 C-6.46009384 16.94303467 -6.24098846 16.22591309 -6.01524353 15.48706055 C-5.6003163 14.12658282 -5.18947939 12.76484746 -4.78370667 11.40161133 C-3.55001713 7.37166579 -1.97962055 3.71826868 0 0 Z " fill="#FEFEFE" transform="translate(512,0)"/>
<path d="M0 0 C2.13720799 3.20581199 3.18761805 6.30333028 4.3190918 9.9362793 C4.65379234 10.99101692 4.65379234 10.99101692 4.99525452 12.06706238 C5.73461291 14.4013238 6.46702078 16.73770228 7.19921875 19.07421875 C7.71733379 20.71648297 8.23579785 22.35863711 8.7545929 24.00068665 C9.84613067 27.45908121 10.93441755 30.91847639 12.02026367 34.37866211 C13.38919638 38.74056451 14.76443541 43.10044363 16.14191055 47.45965481 C21.0252167 62.9184414 25.88448132 78.37492579 30.34846497 93.96096802 C32.88806111 102.7606138 35.63450925 111.49150939 38.3984375 120.22265625 C38.63969423 120.98502783 38.88095097 121.74739941 39.12951851 122.53287315 C41.37363791 129.62064319 43.62544923 136.70596563 45.87890625 143.79077148 C47.3683356 148.47521458 48.85399803 153.16083831 50.3359375 157.84765625 C50.57810816 158.61339336 50.82027882 159.37913048 51.06978798 160.16807175 C54.67771641 171.5963911 58.10437861 183.06769536 61.40696144 194.58767128 C64.40740051 205.05330565 67.61737674 215.42323996 71.0625 225.75 C71.78965061 227.93508878 72.515023 230.12069302 73.23497009 232.3081665 C73.8632857 234.21698277 74.49791809 236.12371658 75.13305664 238.03027344 C76 241 76 241 76 244 C77.17747299 243.99333817 78.35494598 243.98667633 79.56809998 243.97981262 C90.73232862 243.91866815 101.89652274 243.87386862 113.06088161 243.84456348 C118.79887883 243.82899036 124.53673952 243.80790688 130.2746582 243.77368164 C135.82492961 243.74078754 141.37507074 243.7230844 146.92543221 243.71536827 C149.02983713 243.70987818 151.13423594 243.69915962 153.23858452 243.68280983 C181.93601859 243.46896459 207.9279054 249.45308021 230.12109375 268.5703125 C233.50119017 271.42298546 237.00989371 274.05531823 240.5625 276.6875 C246.43364332 281.05226848 252.23701536 285.49341529 258 290 C264.20027412 294.84421161 270.44635607 299.61674105 276.75219727 304.32250977 C285.88791845 311.14487939 294.93897375 318.0789367 304 325 C304.78648926 325.60054199 305.57297852 326.20108398 306.38330078 326.81982422 C316.69758263 334.69654686 326.99604243 342.59355975 337.26953125 350.5234375 C338.36712213 351.36987644 339.46477822 352.21623082 340.5625 353.0625 C341.09875 353.47636963 341.635 353.89023926 342.1875 354.31665039 C345.84288929 357.13065846 349.53974773 359.88345745 353.25 362.625 C362.66306615 369.72195645 370.274392 376.4692496 376 387 C376 387.99 376 388.98 376 390 C420.88 390 465.76 390 512 390 C510.95138397 394.19446414 510.75910554 394.58698195 507.5625 396.99609375 C506.84126953 397.5478125 506.12003906 398.09953125 505.37695312 398.66796875 C504.59255859 399.25191406 503.80816406 399.83585937 503 400.4375 C502.18982422 401.05367188 501.37964844 401.66984375 500.54492188 402.3046875 C498.85866499 403.58608551 497.16916203 404.86322222 495.4765625 406.13623047 C492.49540619 408.37973868 489.53188713 410.64561389 486.57006836 412.91455078 C485.18135274 413.97815725 483.7915265 415.04031506 482.40063477 416.10107422 C477.21907886 420.05376718 472.07410788 424.05164103 466.9375 428.0625 C460.41933174 433.15050671 453.84730093 438.1588086 447.21264648 443.09399414 C444.54106242 445.08284396 441.89869996 447.08162728 439.3046875 449.171875 C437.24021289 450.80945825 435.16606516 452.22516909 432.9375 453.625 C428.54073846 456.51242549 424.57705092 459.79304818 420.57055664 463.19482422 C416.57266758 466.57065204 412.42784528 469.64146594 408.171875 472.6796875 C404.09208082 475.66416748 400.10905095 478.76438675 396.125 481.875 C395.34084717 482.48714355 394.55669434 483.09928711 393.7487793 483.72998047 C392.20329385 484.93697389 390.65796118 486.14416298 389.11279297 487.3515625 C374.5337579 498.72637701 359.80875693 509.92632159 345 521 C330.44746864 531.88597197 316.01868749 542.93380153 301.6875 554.109375 C300.73037109 554.85477539 300.73037109 554.85477539 299.75390625 555.61523438 C298.19116997 556.84906514 296.65596927 558.11759077 295.125 559.390625 C293 561 293 561 291 561 C294.69410817 565.03706251 299.02558148 568.05919334 303.4375 571.25 C310.73696612 576.5816787 317.98899969 581.97015467 325.1875 587.4375 C326.04722412 588.08686523 326.90694824 588.73623047 327.79272461 589.40527344 C343.33531496 601.23712915 355.11172015 613.86128155 358.47265625 633.8046875 C360.57678829 652.04049855 354.57459761 666.50906325 344.4375 681.1875 C343.6191196 682.39067948 342.80174596 683.59454433 341.98535156 684.79907227 C340.38435847 687.15667123 338.77678462 689.50950831 337.16162109 691.85742188 C335.38775305 694.43628222 333.62229964 697.02038469 331.86328125 699.609375 C326.38299807 707.65303251 320.77955169 715.61164021 315.19042969 723.57983398 C311.15627452 729.33463251 307.16050513 735.11412521 303.19018555 740.91308594 C299.43675538 746.38635195 295.62704053 751.8192058 291.8125 757.25 C287.46901722 763.43566257 283.20473228 769.65564573 279.04296875 775.96484375 C276.48260924 779.76866658 273.83761533 783.50841425 271.1875 787.25 C270.68371826 787.96687988 270.17993652 788.68375977 269.66088867 789.42236328 C267.06958152 793.10563598 264.44578154 796.75564348 261.75 800.36328125 C260.72903844 801.76292731 259.70820035 803.16266344 258.6875 804.5625 C258.20112061 805.1925293 257.71474121 805.82255859 257.21362305 806.47167969 C254.83714791 809.77557042 254.00586876 811.45537863 253.9609375 815.625 C254.25902051 817.09396012 254.61240525 818.55208162 255 820 C255.24693604 820.92611084 255.49387207 821.85222168 255.74829102 822.80639648 C256.75758328 826.36740202 257.84074702 829.90278995 258.9375 833.4375 C259.36815142 834.84308452 259.7984768 836.24876896 260.22851562 837.65454102 C265.1080438 853.54437736 270.17342615 869.37707474 275.2003479 885.22070312 C279.65084974 899.25359425 284.05731078 913.28855717 288.125 927.4375 C292.17237276 941.51030273 296.62781247 955.43997864 301.125 969.375 C317 1018.57538518 317 1018.57538518 317 1024 C312.94712239 1023.4141575 310.5374392 1021.31711916 307.375 1018.8125 C306.81506348 1018.37325195 306.25512695 1017.93400391 305.67822266 1017.48144531 C304.44355976 1016.51257094 303.21107656 1015.54091427 301.98046875 1014.56689453 C298.45720637 1011.77938245 294.91717796 1009.0134149 291.375 1006.25 C290.62049561 1005.660979 289.86599121 1005.07195801 289.08862305 1004.46508789 C282.73303114 999.52451708 276.27174021 994.7380551 269.77514648 989.98510742 C264.07400794 985.80995056 258.46707281 981.53102653 252.890625 977.19140625 C249.26415391 974.44214912 245.52557254 971.88495736 241.73046875 969.375 C240.87388672 968.694375 240.87388672 968.694375 240 968 C240 967.34 240 966.68 240 966 C239.43925781 965.73960937 238.87851562 965.47921875 238.30078125 965.2109375 C230.07149739 960.87973547 222.83114569 954.30747413 215.61108398 948.49023438 C208.44708295 942.72794466 201.08093276 937.25459911 193.6640625 931.82421875 C184.12663087 924.83464668 174.70900037 917.72255661 165.3984375 910.43359375 C161.12430745 907.08882752 156.81692585 903.78925282 152.5 900.5 C146.69942654 896.07901514 140.93422566 891.61571043 135.1875 887.125 C128.53154981 881.92946735 121.81734184 876.81628394 115.0625 871.75 C114.20358154 871.10562988 113.34466309 870.46125977 112.4597168 869.79736328 C106.35528148 865.23271353 102.7230242 862.70227214 94.92634583 862.67874146 C94.09385982 862.66856582 93.26137381 862.65839018 92.40366095 862.64790618 C89.60350529 862.61642029 86.803453 862.59939734 84.00317383 862.58251953 C81.99915408 862.56344441 79.99514095 862.54366217 77.99113464 862.52322388 C71.39651327 862.46039209 64.80184114 862.4198946 58.20703125 862.3828125 C56.5224886 862.37292053 56.5224886 862.37292053 54.80391479 862.36282873 C44.20445826 862.30123286 33.60499029 862.24783298 23.00540638 862.21399117 C9.46563668 862.17025262 -4.07253903 862.08649985 -17.61167163 861.94711602 C-27.13970712 861.85237747 -36.6673148 861.80408896 -46.19580632 861.78959739 C-51.8811925 861.7797175 -57.56478363 861.74988763 -63.24965477 861.6701088 C-68.60938402 861.59589061 -73.96631192 861.57970799 -79.32645988 861.60612106 C-81.28233857 861.60601393 -83.23834885 861.58573175 -85.19375229 861.5426178 C-99.08836787 861.25291154 -106.99105974 864.12950651 -117.31948817 873.50470138 C-119.88852831 875.79060149 -122.62246985 877.81473666 -125.375 879.875 C-129.00727499 882.67665587 -132.63006323 885.48991792 -136.24609375 888.3125 C-144.21781207 894.53311045 -152.21945804 900.70204811 -160.32275391 906.75048828 C-165.36320359 910.514241 -170.35576393 914.336427 -175.3359375 918.1796875 C-186.22571692 926.57402115 -197.16829083 934.90133536 -208.1875 943.125 C-216.88873614 949.62532876 -225.4435401 956.31093459 -234 963 C-244.60631904 971.29155546 -255.2591576 979.5051776 -266.05419922 987.54980469 C-275.72020216 994.75382696 -285.34687233 1002.00840752 -294.9375 1009.3125 C-295.80141357 1009.97024414 -296.66532715 1010.62798828 -297.55541992 1011.30566406 C-298.39177979 1011.94342773 -299.22813965 1012.58119141 -300.08984375 1013.23828125 C-300.90437012 1013.85783691 -301.71889648 1014.47739258 -302.55810547 1015.11572266 C-304.22783827 1016.40416475 -305.88259446 1017.71218833 -307.52392578 1019.03662109 C-308.32169434 1019.67809082 -309.11946289 1020.31956055 -309.94140625 1020.98046875 C-310.65111572 1021.56078857 -311.3608252 1022.1411084 -312.09204102 1022.73901367 C-314 1024 -314 1024 -317 1024 C-315.74034151 1017.98099236 -314.2333746 1012.09893016 -312.4375 1006.21875 C-312.18137939 1005.37276245 -311.92525879 1004.5267749 -311.66137695 1003.65515137 C-307.50047816 989.98684874 -303.13729631 976.38054679 -298.81347656 962.76318359 C-293.70524059 946.66738134 -288.64859395 930.56318247 -283.9387207 914.34570312 C-280.68262128 903.15746778 -277.21521797 892.04272632 -273.6875 880.9375 C-273.13200189 879.18429534 -272.57666259 877.43104036 -272.02148438 875.67773438 C-270.68281041 871.45124343 -269.34202167 867.22542909 -268 863 C-268.74892549 863.00368717 -269.49785097 863.00737434 -270.26947117 863.01117325 C-288.55068165 863.09977674 -306.83184889 863.16583185 -325.1132288 863.20724869 C-333.95422676 863.22781348 -342.79508079 863.2558167 -351.63598633 863.30175781 C-359.34792368 863.34181299 -367.05975671 863.36747694 -374.77179521 863.37635398 C-378.84967917 863.38153735 -382.92726486 863.39359075 -387.00505257 863.42292023 C-390.8554681 863.45038587 -394.70546695 863.45838333 -398.55597115 863.45243073 C-399.95745623 863.45351723 -401.35895754 863.46128381 -402.7603569 863.4768219 C-416.72012942 863.62380507 -429.48455756 861.27417929 -441 853 C-441.65274902 852.53400391 -442.30549805 852.06800781 -442.97802734 851.58789062 C-445.20443229 849.98944605 -447.41748792 848.37442757 -449.625 846.75 C-450.34937256 846.21826172 -451.07374512 845.68652344 -451.82006836 845.13867188 C-452.82565796 844.38166992 -452.82565796 844.38166992 -453.8515625 843.609375 C-454.45822754 843.15530273 -455.06489258 842.70123047 -455.68994141 842.23339844 C-456.12226074 841.82637695 -456.55458008 841.41935547 -457 841 C-457 840.34 -457 839.68 -457 839 C-457.99 838.67 -458.98 838.34 -460 838 C-461.53515625 835.92578125 -461.53515625 835.92578125 -463.0625 833.3125 C-463.56910156 832.46300781 -464.07570313 831.61351562 -464.59765625 830.73828125 C-470.67242624 818.87640447 -468.80256104 805.811495 -464.98269653 793.55194092 C-464.23351296 791.23739652 -463.46183705 788.93123588 -462.6875 786.625 C-462.18062155 785.06194873 -461.67605608 783.49814548 -461.17382812 781.93359375 C-460.44266457 779.65817438 -459.70967905 777.38354635 -458.9667511 775.11193848 C-457.41314635 770.35542837 -456.02574359 765.58083115 -454.74975586 760.74169922 C-453.14219742 754.8631967 -451.26506556 749.06304611 -449.4375 743.25 C-448.99099903 741.82382724 -448.54454832 740.39763873 -448.09814453 738.97143555 C-445.62684118 731.09085222 -443.10534796 723.22849737 -440.53930664 715.37817383 C-434.71055627 697.52770222 -429.30378656 679.55644177 -423.8996582 661.57348633 C-419.06842313 645.50168623 -414.13304117 629.46836044 -409.08837891 613.46240234 C-407.29295605 607.75071841 -405.52175734 602.03156041 -403.75 596.3125 C-403.01312031 593.93616707 -402.27613674 591.55986635 -401.5390625 589.18359375 C-401.24791313 588.24492462 -401.24791313 588.24492462 -400.95088196 587.28729248 C-398.31454069 578.78878232 -395.67427964 570.29149171 -393.03237915 561.79470825 C-392.12966917 558.89002417 -391.22822171 555.98495044 -390.3269043 553.07983398 C-387.46186209 543.85363093 -384.57381953 534.63604697 -381.62109375 525.4375 C-381.09799284 523.80099249 -380.57503954 522.16443779 -380.05224609 520.52783203 C-379.08157748 517.48918644 -378.09983197 514.45442963 -377.11181641 511.42138672 C-376.67955211 510.07013434 -376.24772148 508.71874312 -375.81640625 507.3671875 C-375.43943604 506.20300293 -375.06246582 505.03881836 -374.67407227 503.83935547 C-373.72445464 500.94862562 -373.72445464 500.94862562 -375 498 C-376.99371825 496.65729179 -378.9934562 495.32346506 -381 494 C-381 493.34 -381 492.68 -381 492 C-381.72703125 491.74863281 -382.4540625 491.49726563 -383.203125 491.23828125 C-386.23208063 489.89724922 -388.23962092 488.3421088 -390.75 486.1875 C-395.42998788 482.26558245 -400.19963566 478.50502534 -405.0625 474.8125 C-411.20089421 470.1469339 -417.30056388 465.43602454 -423.375 460.6875 C-428.8843279 456.38682744 -434.43683838 452.17899128 -440.1171875 448.10546875 C-443.85199748 445.37774168 -447.51901444 442.566008 -451.1875 439.75 C-457.08536615 435.22476434 -462.9961443 430.71804038 -468.9375 426.25 C-469.95783325 425.47994629 -469.95783325 425.47994629 -470.9987793 424.69433594 C-474.36112583 422.13085821 -474.36112583 422.13085821 -478 420 C-478 419.34 -478 418.68 -478 418 C-478.58644287 417.72397949 -479.17288574 417.44795898 -479.77709961 417.16357422 C-481.90256174 416.05100393 -483.66938776 414.8446552 -485.56640625 413.3828125 C-488.80345137 410.91055963 -492.0615704 408.47210039 -495.33984375 406.0546875 C-497.20606431 404.66190729 -499.07194507 403.26867166 -500.9375 401.875 C-501.89462891 401.17246094 -502.85175781 400.46992188 -503.83789062 399.74609375 C-504.74603516 399.06417969 -505.65417969 398.38226563 -506.58984375 397.6796875 C-507.41347412 397.06851074 -508.23710449 396.45733398 -509.08569336 395.82763672 C-511 394 -511 394 -512 390 C-454.91 390 -397.82 390 -339 390 C-338.34 386.37 -337.68 382.74 -337 379 C-335.83391903 375.25406925 -334.61488066 371.57184171 -333.3125 367.875 C-328.68012376 354.3615253 -324.47819008 340.72598405 -320.3125 327.0625 C-319.99511871 326.02277039 -319.67773743 324.98304077 -319.35073853 323.9118042 C-315.87846915 312.53189059 -312.42895151 301.14529501 -309.03022766 289.74317932 C-307.38302782 284.22929083 -305.67574659 278.73584142 -303.9375 273.25 C-303.70015137 272.49832047 -303.46280273 271.74664093 -303.21826172 270.97218323 C-301.5539391 265.7903707 -299.02894421 261.49988964 -296 257 C-295.1646875 255.700625 -295.1646875 255.700625 -294.3125 254.375 C-288.06457578 247.95821297 -279.94211039 244.30641804 -271.03080845 243.75390434 C-269.5550308 243.74559376 -268.07916581 243.74808734 -266.60340881 243.75949097 C-265.78480092 243.75778212 -264.96619303 243.75607327 -264.12277883 243.75431263 C-261.39434337 243.75103233 -258.66615675 243.76199727 -255.93774414 243.77294922 C-253.97614549 243.77351365 -252.01454641 243.77319615 -250.052948 243.77206421 C-244.73737919 243.77149094 -239.42190085 243.78324121 -234.10635304 243.79721212 C-228.54766757 243.80972366 -222.98897997 243.81089032 -217.43028259 243.81326294 C-206.90841185 243.81947645 -196.38658272 243.83588557 -185.8647303 243.85596192 C-173.88414877 243.87832489 -161.90356524 243.88931536 -149.92296803 243.89935279 C-125.28195563 243.92025188 -100.64098015 243.9554254 -76 244 C-75.79976069 243.18824845 -75.59952139 242.37649691 -75.39321423 241.54014683 C-75.12747254 240.46878451 -74.86173086 239.3974222 -74.5879364 238.29359436 C-74.3258221 237.23434281 -74.06370779 236.17509127 -73.79365063 235.08374119 C-72.72708002 230.93956541 -71.46659843 226.87703682 -70.14453125 222.80859375 C-69.8792009 221.97957047 -69.61387054 221.15054718 -69.34049988 220.29640198 C-68.5014238 217.67559887 -67.65751654 215.0563932 -66.8125 212.4375 C-63.14627215 201.06312911 -59.58088151 189.67037713 -56.21484375 178.203125 C-53.25825718 168.14065369 -50.19524451 158.11697434 -47.046875 148.11328125 C-46.83380266 147.43621061 -46.62073032 146.75913998 -46.40120125 146.06155205 C-45.30454021 142.57860737 -44.20623656 139.09618312 -43.1071167 135.61401367 C-40.78022377 128.24107497 -38.46248882 120.86525952 -36.1484375 113.48828125 C-35.92122135 112.76395023 -35.6940052 112.03961922 -35.45990372 111.29333878 C-31.43094836 98.44151004 -27.51097171 85.55952998 -23.67660522 72.64834595 C-19.22835193 57.67125025 -14.59295443 42.7567816 -9.85406494 27.86914062 C-8.77426473 24.47239185 -7.71361071 21.07102627 -6.67919922 17.66015625 C-6.46009384 16.94303467 -6.24098846 16.22591309 -6.01524353 15.48706055 C-5.6003163 14.12658282 -5.18947939 12.76484746 -4.78370667 11.40161133 C-3.55001713 7.37166579 -1.97962055 3.71826868 0 0 Z M-279 275 C-280.16812608 277.72778453 -280.16812608 277.72778453 -280.8125 280.8125 C-282.47431099 287.2091534 -284.43389816 293.43098732 -286.5625 299.6875 C-296.33101446 328.38628196 -296.33101446 328.38628196 -304.5 357.5625 C-306.63882757 366.18987186 -309.37354687 374.615788 -312.125 383.0625 C-312.35985107 383.78378082 -312.59470215 384.50506165 -312.83666992 385.24819946 C-315.05400629 392.04942327 -317.28843885 398.84499977 -319.53027344 405.63818359 C-320.78640355 409.44481399 -322.03598165 413.2535488 -323.28216553 417.06344604 C-323.97692162 419.1797023 -324.67989503 421.29310047 -325.38330078 423.40649414 C-327.83383185 430.85087028 -329.77407454 438.26359472 -331.32470703 445.95507812 C-332.022941 449.10344187 -332.96822144 451.94690469 -334.18261719 454.92382812 C-336.09010709 459.76889807 -337.54626175 464.79041793 -339.125 469.75 C-339.92439981 472.25002538 -340.72388138 474.75002461 -341.5234375 477.25 C-341.93587358 478.54166629 -342.34830847 479.83333296 -342.76074219 481.125 C-344.36264133 486.1382169 -345.97799824 491.14708962 -347.5925293 496.15625 C-349.08003464 500.77470153 -350.56190197 505.39494884 -352.04248047 510.015625 C-352.87001095 512.5948531 -353.70210446 515.17255242 -354.53515625 517.75 C-356.48578366 523.83284918 -358.24092473 529.90074494 -359.6875 536.125 C-361.89416925 545.51569734 -365.12851576 554.59226825 -368.21875 563.71899414 C-370.93178419 571.7400008 -373.50716878 579.78302445 -375.87133789 587.91455078 C-377.11493137 592.1576082 -378.44217761 596.35441932 -379.8828125 600.53515625 C-380.20354736 601.46835693 -380.52428223 602.40155762 -380.85473633 603.36303711 C-381.46982068 605.13679426 -382.09390725 606.90746952 -382.72924805 608.67407227 C-384.73122964 614.44617552 -385.64656493 619.90344729 -386 626 C-386.66 626 -387.32 626 -388 626 C-388.24234375 627.02738281 -388.4846875 628.05476563 -388.734375 629.11328125 C-390.45611186 636.2805316 -392.28540749 643.24806449 -394.94555664 650.13574219 C-396.01987097 653.05397689 -396.95289152 655.98527893 -397.85546875 658.9609375 C-398.20399902 660.10425537 -398.5525293 661.24757324 -398.91162109 662.42553711 C-399.27078613 663.60510986 -399.62995117 664.78468262 -400 666 C-401.43275026 670.64730513 -402.8726427 675.29239242 -404.3125 679.9375 C-404.70058838 681.19079102 -405.08867676 682.44408203 -405.48852539 683.73535156 C-407.32293273 689.65109309 -409.17174167 695.56151765 -411.0703125 701.45703125 C-411.38701904 702.44131104 -411.70372559 703.42559082 -412.0300293 704.43969727 C-412.61374241 706.24737057 -413.20086851 708.05394724 -413.79223633 709.85913086 C-415.03688296 713.71193509 -416.15714656 717.52190957 -416.99609375 721.484375 C-418.0447859 726.43554187 -419.55634975 731.19206269 -421.125 736 C-421.75395408 737.95050541 -422.38285841 739.90102687 -423.01171875 741.8515625 C-423.50164307 743.36411621 -423.50164307 743.36411621 -424.00146484 744.90722656 C-424.99515252 747.98498586 -425.97794571 751.06600445 -426.95703125 754.1484375 C-427.61711965 756.22397991 -428.27727622 758.29950065 -428.9375 760.375 C-429.26508301 761.40608887 -429.59266602 762.43717773 -429.93017578 763.49951172 C-431.65880562 768.91083811 -433.43396464 774.30114359 -435.28515625 779.671875 C-435.65584229 780.7542041 -436.02652832 781.8365332 -436.40844727 782.95166016 C-437.11710064 785.01184279 -437.83454006 787.06903191 -438.56225586 789.12255859 C-440.34201837 794.30714265 -441.42556653 798.51323151 -441 804 C-441.66 804 -442.32 804 -443 804 C-444.87060681 809.61182042 -444.65804441 814.76794098 -442.21289062 820.16259766 C-439.70515199 823.96155921 -435.83466951 826.28532451 -432.125 828.8125 C-431.32191406 829.38419922 -430.51882813 829.95589844 -429.69140625 830.54492188 C-422.28489628 835.73679995 -417.1843349 837.29699595 -408.17673302 837.26006222 C-407.17545053 837.26386789 -406.17416805 837.26767356 -405.14254367 837.27159455 C-401.76631323 837.28195231 -398.3902496 837.27799639 -395.01400757 837.27415466 C-392.57722516 837.27860484 -390.1404442 837.28391815 -387.70366538 837.29002339 C-382.39445008 837.30126773 -377.08528334 837.30623586 -371.7760601 837.30570221 C-363.88041424 837.30490948 -355.98481181 837.31545395 -348.08917755 837.32811778 C-332.34184318 837.35287225 -316.59451933 837.36164266 -300.84716818 837.36665427 C-299.62333517 837.36704603 -299.62333517 837.36704603 -298.37477827 837.36744571 C-297.55724057 837.36770598 -296.73970288 837.36796626 -295.89739131 837.36823442 C-286.83876444 837.37131636 -277.7801405 837.3778212 -268.72151566 837.3844471 C-241.35467102 837.40409985 -213.98782955 837.42050026 -186.6209774 837.42332363 C-185.30753705 837.42346472 -185.30753705 837.42346472 -183.96756255 837.42360866 C-180.41904534 837.42398714 -176.87052813 837.42435114 -173.32201092 837.42471164 C-170.65119738 837.42498336 -167.98038385 837.42526004 -165.30957031 837.42553711 C-163.98575602 837.42566914 -163.98575602 837.42566914 -162.635198 837.42580384 C-134.92864224 837.42870685 -107.22215635 837.45077845 -79.515625 837.48706055 C-48.38403423 837.52782679 -17.25249106 837.55148252 13.87912786 837.55178314 C17.20211689 837.55187996 20.52510591 837.55204668 23.84809494 837.55226326 C24.66628964 837.55230737 25.48448433 837.55235149 26.32747281 837.55239694 C39.47224685 837.55351497 52.61695072 837.57089793 65.76170219 837.59408258 C78.9877374 837.61697673 92.21367824 837.62111727 105.43972601 837.60653328 C113.28765608 837.59840859 121.13528802 837.60397694 128.98318166 837.62971413 C134.85874556 837.64742016 140.73408483 837.63868907 146.60965197 837.62006903 C148.97523863 837.61658698 151.34085653 837.62142911 153.70640226 837.63577347 C178.71565786 837.77756436 199.96137976 833.11375974 219 816 C219.598125 815.48308594 220.19625 814.96617187 220.8125 814.43359375 C229.43986116 806.46526712 235.6121725 795.65149881 242.03173828 785.89746094 C245.44561596 780.74548864 249.04513061 775.74228033 252.6875 770.75 C256.75128418 765.1790784 260.63055249 759.57276136 264.26171875 753.70703125 C267.58173135 748.53676443 271.23913576 743.59813262 274.83496094 738.61767578 C279.0080827 732.82322801 283.04964475 726.94823606 287 721 C290.58314205 715.60477275 294.26011256 710.28742707 298 705 C302.00427844 699.33634387 306.00556822 693.67060621 310 688 C310.61560791 687.12722412 310.61560791 687.12722412 311.24365234 686.23681641 C313.86416347 682.51481747 316.44428429 678.76664812 319 675 C319.45826172 674.32936523 319.91652344 673.65873047 320.38867188 672.96777344 C332.54176894 655.1253384 332.54176894 655.1253384 334 634 C328.79723003 617.47714067 312.29821712 608.61631844 299 599 C296.47638094 597.17046687 293.95522875 595.33763099 291.4375 593.5 C290.83945557 593.06357178 290.24141113 592.62714355 289.62524414 592.17749023 C283.9911109 588.04028726 278.49583729 583.73105038 272.99438477 579.41992188 C265.16794655 573.30805352 257.1670336 567.4420105 249.15136719 561.58203125 C245.74869505 559.0798393 242.37268881 556.54240039 239 554 C239.57854736 554.00112793 240.15709473 554.00225586 240.75317383 554.00341797 C253.29169641 553.94603343 263.34258485 553.89455236 273.078125 545.12890625 C278.90135407 539.06495314 283.29076638 531.76641071 287.85546875 524.74365234 C289.91217317 521.61033687 292.08065108 518.55743254 294.2421875 515.49609375 C296.24241877 512.65576535 298.21505505 509.7971917 300.1875 506.9375 C303.22736451 502.53239534 306.30309197 498.15442226 309.40112305 493.79003906 C313.64480619 487.80990524 317.83617833 481.80816276 321.875 475.6875 C327.50602614 467.15420505 333.39568513 458.8041854 339.28051758 450.44482422 C342.19441467 446.30173668 345.09826875 442.15161517 348 438 C348.43650879 437.37891357 348.87301758 436.75782715 349.32275391 436.11791992 C351.39331021 433.31985449 351.39331021 433.31985449 352 430 C352.66 430 353.32 430 354 430 C357.54424548 421.2237731 359.1358586 410.33725946 356.05078125 401.18359375 C354.8521034 398.94883472 353.55224746 397.00192361 352 395 C351.29875 393.989375 350.5975 392.97875 349.875 391.9375 C346.73025093 388.35899244 342.75873063 385.79203575 338.88671875 383.0625 C336.22397706 381.16002691 333.66844944 379.18299498 331.125 377.125 C325.70968688 372.74484152 320.18975573 368.50723757 314.66015625 364.2734375 C311.99728536 362.23085889 309.3436611 360.17629273 306.6875 358.125 C299.1809164 352.34228553 291.5894508 346.67321334 284 341 C272.65023025 332.51589926 261.3619305 323.96453027 250.1875 315.25 C248.79209485 314.16611519 247.39627126 313.08276885 246 312 C245.25492188 311.41863281 244.50984375 310.83726562 243.7421875 310.23828125 C243.02289062 309.68527344 242.30359375 309.13226563 241.5625 308.5625 C240.92441406 308.06878906 240.28632812 307.57507813 239.62890625 307.06640625 C238.04560546 305.8174214 238.04560546 305.8174214 236 306 C235.67 305.01 235.34 304.02 235 303 C234.01 303 233.02 303 232 303 C231.67 302.01 231.34 301.02 231 300 C228.8432471 298.29976468 226.70134652 296.73117686 224.4375 295.1875 C223.14525592 294.28858991 221.85358471 293.38885571 220.5625 292.48828125 C219.63050781 291.84173584 219.63050781 291.84173584 218.6796875 291.18212891 C216.71973302 289.80275397 214.82498409 288.35163088 212.9375 286.875 C198.53054485 276.07743064 184.12336973 269.8318666 166.0330019 269.86298561 C165.26887772 269.86033378 164.50475353 269.85768196 163.71747407 269.85494977 C161.16623574 269.84731223 158.61504597 269.84669975 156.063797 269.84609985 C154.21254452 269.84208166 152.36129292 269.83764284 150.51004237 269.8328203 C145.42986579 269.82089036 140.34969869 269.81521477 135.26951087 269.81063914 C129.78824408 269.80467006 124.30698854 269.79306413 118.82572937 269.78234863 C105.59793745 269.75786415 92.37014183 269.74320827 79.14233425 269.73028857 C75.4074483 269.72657534 71.67256272 269.72260227 67.93767715 269.7185359 C44.74717852 269.69331061 21.55667924 269.67124071 -1.63383007 269.65880775 C-7.00092255 269.65588656 -12.368015 269.65291899 -17.73510742 269.64990234 C-18.40188006 269.64953143 -19.0686527 269.64916053 -19.75563058 269.64877838 C-41.39606765 269.63661053 -63.03642363 269.60564075 -84.67682259 269.56398082 C-107.56059632 269.52000755 -130.44433725 269.49427752 -153.32815629 269.48888719 C-165.80152629 269.48546868 -178.27476809 269.47366056 -190.74809837 269.44078445 C-201.36299417 269.41285202 -211.97773545 269.40175493 -222.59266516 269.41297992 C-228.01105165 269.41818289 -233.42911419 269.4151733 -238.84745407 269.39051437 C-243.80362917 269.368146 -248.75924526 269.36866448 -253.71542934 269.38771825 C-255.51204475 269.39053565 -257.30869709 269.38482401 -259.10525277 269.36990531 C-261.54103174 269.3509086 -263.97479464 269.36251149 -266.41052532 269.38196754 C-267.11385023 269.36911832 -267.81717514 269.3562691 -268.54181293 269.34303051 C-273.70033219 269.43404852 -275.83744848 271.02572509 -279 275 Z " fill="#0130DD" transform="translate(512,0)"/>
<path d="M0 0 C35.20304098 -0.06864125 70.40606843 -0.12151613 105.60916222 -0.15319599 C109.76361151 -0.15694818 113.91806067 -0.16083114 118.07250977 -0.16479492 C118.89959851 -0.16558185 119.72668724 -0.16636878 120.57883928 -0.16717956 C133.97735801 -0.18023951 147.37583819 -0.20389659 160.77433404 -0.23145839 C174.5186966 -0.25949622 188.26303895 -0.27617282 202.00742894 -0.28226548 C210.49095172 -0.2863853 218.97436554 -0.2994053 227.45785479 -0.3237494 C233.27242377 -0.33958657 239.08693629 -0.34440495 244.90152528 -0.34050413 C248.25812865 -0.3385794 251.61438745 -0.34319578 254.97098351 -0.35761642 C258.60838801 -0.37248106 262.24532143 -0.36897525 265.88273621 -0.36076355 C267.47757891 -0.37387134 267.47757891 -0.37387134 269.10464066 -0.38724393 C277.8908798 -0.3334088 277.8908798 -0.3334088 282 3 C282.64582031 3.4549585 283.29164063 3.90991699 283.95703125 4.37866211 C284.56933594 4.84022705 285.18164062 5.30179199 285.8125 5.77734375 C286.49570312 6.29103516 287.17890625 6.80472656 287.8828125 7.33398438 C288.58148437 7.86314453 289.28015625 8.39230469 290 8.9375 C290.69867187 9.46279297 291.39734375 9.98808594 292.1171875 10.52929688 C302.78533072 18.57066143 302.78533072 18.57066143 304 21 C304.47902288 25.95684541 303.55663504 28.3616608 300.6875 32.375 C299.59308594 33.93541016 299.59308594 33.93541016 298.4765625 35.52734375 C297.87763184 36.36434814 297.87763184 36.36434814 297.26660156 37.21826172 C295.46444018 39.75337617 293.71516033 42.32367339 291.9609375 44.89208984 C289.65199863 48.26923542 287.32472989 51.63371518 285 55 C284.27039063 56.05832031 283.54078125 57.11664062 282.7890625 58.20703125 C280.53183294 61.47539896 278.26835186 64.73934732 276 68 C275.45375977 68.7852002 274.90751953 69.57040039 274.34472656 70.37939453 C272.50255112 73.02509322 270.65786033 75.66902194 268.8125 78.3125 C268.23008545 79.1487793 267.6476709 79.98505859 267.04760742 80.84667969 C264.31613905 84.75399719 261.56190442 88.64298447 258.73828125 92.484375 C258.27333252 93.11698242 257.80838379 93.74958984 257.3293457 94.40136719 C254.51173021 97.78975033 251.19792833 99.13946233 247 100 C245.39580182 100.08765749 243.78838817 100.12377414 242.18179703 100.12304783 C241.20893226 100.12503888 240.23606749 100.12702993 239.23372197 100.12908131 C238.16758066 100.12616847 237.10143935 100.12325563 236.00299072 100.12025452 C234.86842902 100.12110894 233.73386732 100.12196337 232.56492496 100.12284368 C228.74932211 100.12449559 224.93376288 100.11898178 221.11816406 100.11352539 C218.38854443 100.1126871 215.65892567 100.11335735 212.92930603 100.1139679 C207.04546911 100.11449245 201.16164327 100.11135273 195.27780914 100.10573006 C186.77075461 100.09760588 178.26370543 100.09499889 169.75664744 100.09374207 C155.95478666 100.09155299 142.15293179 100.08489682 128.35107422 100.07543945 C114.94319692 100.0662616 101.53532122 100.05918259 88.12744141 100.05493164 C86.88792108 100.05453756 86.88792108 100.05453756 85.62335995 100.05413551 C81.47785476 100.05283048 77.33234956 100.05156677 73.18684435 100.05032361 C38.79122531 100.0399555 4.39561329 100.0223411 -30 100 C-29.53724162 98.27939875 -29.07269281 96.55927899 -28.60742188 94.83935547 C-28.34892456 93.88141083 -28.09042725 92.92346619 -27.82409668 91.93649292 C-26.51954193 87.28799005 -25.00300271 82.71229801 -23.5 78.125 C-21.24713128 71.16105728 -19.26241033 64.2626843 -17.7265625 57.1015625 C-15.8040563 48.89473494 -12.97606796 40.89529007 -10.296875 32.91015625 C-9.99942383 32.02328125 -9.70197266 31.13640625 -9.39550781 30.22265625 C-8.82569078 28.52998275 -8.25249564 26.83843992 -7.67480469 25.1484375 C-5.77080096 19.51920908 -4.05146732 13.84722387 -2.38476562 8.14428711 C-2.15460754 7.35914482 -1.92444946 6.57400253 -1.68731689 5.76506805 C-1.12416163 3.84358849 -0.56198154 1.92182317 0 0 Z " fill="#0030DD" transform="translate(322,614)"/>
<path d="M0 0 C0.92438954 0.00036873 1.84877908 0.00073745 2.80118042 0.00111735 C3.77926417 -0.00623603 4.75734791 -0.0135894 5.76507056 -0.02116561 C9.06371352 -0.04330517 12.36223063 -0.05093806 15.66093689 -0.05854452 C18.01774235 -0.07106923 20.37454383 -0.08436241 22.73134094 -0.09836996 C29.82144647 -0.13688096 36.9115379 -0.15803892 44.00172201 -0.17582554 C47.34204975 -0.18459164 50.68237146 -0.19532557 54.02269417 -0.20580328 C65.13085701 -0.23983821 76.23901588 -0.26882156 87.34722286 -0.28330076 C90.23092837 -0.28712049 93.11463385 -0.29096115 95.99833924 -0.29487264 C96.71506098 -0.29584012 97.43178272 -0.2968076 98.1702233 -0.2978044 C109.76704479 -0.31438623 121.3634524 -0.36502287 132.96009337 -0.430034 C144.8716788 -0.49626462 156.78305435 -0.53220669 168.69482481 -0.53858924 C175.38059812 -0.54291246 182.06567695 -0.56119425 188.75128227 -0.61151159 C195.04619098 -0.65811987 201.34001756 -0.66652192 207.63505417 -0.64598882 C209.94126668 -0.64499886 212.24753282 -0.65761801 214.55358177 -0.68510091 C235.63224709 -0.92218073 235.63224709 -0.92218073 243.4114185 6.1878792 C244.09583232 6.88338067 244.78024615 7.57888213 245.48539978 8.29545939 C246.37957076 9.000654 247.27374174 9.7058486 248.19500881 10.43241274 C250.48539978 12.29545939 250.48539978 12.29545939 251.48539978 14.29545939 C251.89922358 18.99837314 251.23071212 21.40502836 248.52055603 25.23686564 C247.88996277 26.14347941 247.25936951 27.05009318 246.60966736 27.98418009 C245.92928406 28.93252726 245.24890076 29.88087443 244.54789978 30.85795939 C243.85784851 31.84304484 243.16779724 32.82813029 242.45683533 33.84306681 C241.08722094 35.79665148 239.71211137 37.74639699 238.33110291 39.69194376 C236.12109748 42.80933767 233.95799004 45.95582768 231.79789978 49.10795939 C229.42534716 52.52853807 227.03486521 55.93554706 224.62602478 59.33061564 C223.59991607 60.77718266 222.57387554 62.22379806 221.54789978 63.67045939 C220.78533875 64.74517497 220.78533875 64.74517497 220.00737244 65.84160197 C216.64167643 70.60438947 213.38199873 75.42616185 210.17289978 80.29545939 C208.97426201 82.09576171 207.77202078 83.89351256 206.56547791 85.6885258 C205.58155094 87.15240629 204.60346772 88.62021028 203.62602478 90.08842814 C203.06399353 90.87862345 202.50196228 91.66881876 201.92289978 92.48295939 C201.46786072 93.13651408 201.01282166 93.79006876 200.54399353 94.46342814 C192.84004727 101.31950176 183.51095927 100.84976758 173.7830072 100.76201212 C172.20510946 100.76256165 170.62721147 100.76494122 169.04931885 100.76900065 C165.66571618 100.77415716 162.28243891 100.76716279 158.89887291 100.75074923 C153.53897327 100.72551904 148.1793907 100.73194549 142.81946045 100.74322855 C129.50687855 100.76637441 116.19438971 100.74805103 102.88182312 100.72172892 C92.53171945 100.7017391 82.18187164 100.69328357 71.83176744 100.7186653 C66.51352325 100.73042323 61.19601042 100.71895939 55.87784284 100.68941259 C52.55682821 100.67607106 49.23609109 100.68363294 45.91508538 100.69669306 C44.38656162 100.69853522 42.85799832 100.69196213 41.32955796 100.67588961 C27.89704685 100.54246095 17.80634916 103.74532564 7.29789978 112.17045939 C6.28445496 112.95501505 6.28445496 112.95501505 5.2505365 113.75542033 C3.31781386 115.25540234 1.39932924 116.77160699 -0.51460022 118.29545939 C-2.30508564 119.7136187 -4.096497 121.13061144 -5.88960022 122.54545939 C-6.55733459 123.08686564 -7.22506897 123.62827189 -7.91303772 124.18608439 C-9.51460022 125.29545939 -9.51460022 125.29545939 -11.51460022 125.29545939 C-11.51460022 125.95545939 -11.51460022 126.61545939 -11.51460022 127.29545939 C-13.28803772 128.74858439 -13.28803772 128.74858439 -15.88960022 130.54545939 C-22.0955569 134.93798717 -28.07732846 139.58564886 -34.05512756 144.28276408 C-36.20077169 145.96368344 -38.35401213 147.63380076 -40.51460022 149.29545939 C-41.17468078 149.80504191 -41.83476135 150.31462443 -42.51484436 150.83964884 C-47.16550647 154.31774197 -47.16550647 154.31774197 -50.45210022 154.10795939 C-51.13272522 153.83983439 -51.81335022 153.57170939 -52.51460022 153.29545939 C-53.87026725 148.78502568 -53.04912567 146.0151331 -51.49506897 141.63139689 C-51.27643692 140.99867869 -51.05780487 140.36596049 -50.83254761 139.71406901 C-50.1337894 137.69533764 -49.41943208 135.68265857 -48.70210022 133.67045939 C-44.54197546 122.03241725 -44.54197546 122.03241725 -42.06269592 109.94243205 C-41.44241705 106.9468581 -40.4246705 104.26886938 -39.31985229 101.42268717 C-38.00154691 97.94013069 -36.91341847 94.38910266 -35.80756897 90.83452189 C-35.55969131 90.04508189 -35.31181366 89.25564188 -35.05642456 88.44227946 C-34.26955431 85.93565713 -33.4855429 83.42815491 -32.70210022 80.92045939 C-31.67672236 77.64119408 -30.64931787 74.36257424 -29.62006897 71.08452189 C-29.36691925 70.27605814 -29.11376953 69.4675944 -28.85294861 68.63463175 C-27.55398511 64.50822188 -26.2210059 60.39718852 -24.82563537 56.30229533 C-24.55157364 55.49625865 -24.2775119 54.69022196 -23.99514526 53.85975993 C-23.47614192 52.34204345 -22.95186085 50.82611659 -22.42114013 49.31245768 C-20.9367138 44.97539586 -20.09243846 40.86358585 -19.51460022 36.29545939 C-18.42866272 33.40874064 -18.42866272 33.40874064 -17.13960022 30.60795939 C-14.93520819 25.53405705 -13.45094104 20.58073635 -12.19819397 15.20170939 C-11.52315509 12.3318298 -10.77004769 9.5027551 -9.95210022 6.67045939 C-9.72393615 5.87381876 -9.49577209 5.07717814 -9.26069397 4.25639689 C-7.46329829 -0.46764828 -4.55524764 0.04853989 0 0 Z " fill="#0030DD" transform="translate(398.5146002173424,391.7045406103134)"/>
</svg>
