<?xml version="1.0" encoding="UTF-8"?>
<svg xmlns="http://www.w3.org/2000/svg" xmlns:xlink="http://www.w3.org/1999/xlink" width="32px" height="32px" viewBox="0 0 32 32" version="1.1">
<g id="surface1">
<path style=" stroke:none;fill-rule:nonzero;fill:rgb(99.607843%,99.607843%,99.607843%);fill-opacity:1;" d="M 16 0 C 16.066406 0.101562 16.101562 0.195312 16.136719 0.308594 C 16.144531 0.34375 16.144531 0.34375 16.15625 0.378906 C 16.179688 0.449219 16.203125 0.523438 16.226562 0.597656 C 16.242188 0.648438 16.257812 0.699219 16.273438 0.75 C 16.308594 0.859375 16.339844 0.964844 16.375 1.074219 C 16.417969 1.210938 16.460938 1.347656 16.503906 1.484375 C 16.65625 1.964844 16.808594 2.449219 16.949219 2.9375 C 17.027344 3.210938 17.113281 3.484375 17.199219 3.757812 C 17.207031 3.78125 17.214844 3.804688 17.222656 3.828125 C 17.292969 4.050781 17.363281 4.273438 17.433594 4.492188 C 17.480469 4.640625 17.527344 4.785156 17.574219 4.933594 C 17.582031 4.957031 17.589844 4.980469 17.597656 5.003906 C 17.707031 5.363281 17.816406 5.722656 17.917969 6.082031 C 18.011719 6.40625 18.113281 6.730469 18.21875 7.054688 C 18.242188 7.121094 18.265625 7.191406 18.289062 7.257812 C 18.308594 7.320312 18.328125 7.378906 18.347656 7.4375 C 18.375 7.53125 18.375 7.53125 18.375 7.625 C 18.410156 7.625 18.449219 7.625 18.488281 7.625 C 18.835938 7.621094 19.183594 7.621094 19.53125 7.621094 C 19.710938 7.621094 19.890625 7.617188 20.070312 7.617188 C 20.246094 7.617188 20.417969 7.617188 20.589844 7.617188 C 20.65625 7.617188 20.722656 7.617188 20.789062 7.613281 C 21.683594 7.609375 22.496094 7.796875 23.191406 8.394531 C 23.296875 8.480469 23.40625 8.5625 23.515625 8.648438 C 23.699219 8.78125 23.882812 8.921875 24.0625 9.0625 C 24.257812 9.214844 24.453125 9.363281 24.648438 9.511719 C 24.933594 9.722656 25.21875 9.941406 25.5 10.15625 C 25.523438 10.175781 25.550781 10.195312 25.574219 10.214844 C 25.898438 10.460938 26.21875 10.707031 26.539062 10.953125 C 26.574219 10.980469 26.609375 11.007812 26.640625 11.03125 C 26.660156 11.046875 26.675781 11.058594 26.695312 11.074219 C 26.808594 11.160156 26.921875 11.246094 27.039062 11.332031 C 27.332031 11.554688 27.570312 11.765625 27.75 12.09375 C 27.75 12.125 27.75 12.15625 27.75 12.1875 C 29.152344 12.1875 30.554688 12.1875 32 12.1875 C 31.96875 12.320312 31.960938 12.332031 31.859375 12.40625 C 31.839844 12.421875 31.816406 12.441406 31.792969 12.457031 C 31.769531 12.476562 31.742188 12.496094 31.71875 12.511719 C 31.695312 12.53125 31.667969 12.550781 31.640625 12.570312 C 31.589844 12.613281 31.535156 12.652344 31.484375 12.691406 C 31.390625 12.761719 31.296875 12.832031 31.207031 12.902344 C 31.160156 12.9375 31.117188 12.96875 31.074219 13.003906 C 30.914062 13.125 30.753906 13.25 30.59375 13.375 C 30.386719 13.535156 30.183594 13.691406 29.976562 13.847656 C 29.890625 13.910156 29.808594 13.972656 29.726562 14.035156 C 29.664062 14.085938 29.597656 14.132812 29.53125 14.175781 C 29.390625 14.265625 29.269531 14.367188 29.144531 14.476562 C 29.019531 14.582031 28.886719 14.675781 28.753906 14.769531 C 28.628906 14.863281 28.503906 14.960938 28.378906 15.058594 C 28.355469 15.078125 28.328125 15.097656 28.304688 15.117188 C 28.257812 15.152344 28.207031 15.191406 28.160156 15.230469 C 27.703125 15.585938 27.242188 15.933594 26.78125 16.28125 C 26.328125 16.621094 25.875 16.964844 25.429688 17.316406 C 25.398438 17.339844 25.398438 17.339844 25.367188 17.363281 C 25.320312 17.402344 25.269531 17.441406 25.222656 17.480469 C 25.15625 17.53125 25.15625 17.53125 25.09375 17.53125 C 25.210938 17.65625 25.34375 17.75 25.484375 17.851562 C 25.710938 18.019531 25.9375 18.1875 26.164062 18.355469 C 26.1875 18.378906 26.214844 18.398438 26.242188 18.417969 C 26.730469 18.789062 27.097656 19.183594 27.203125 19.804688 C 27.269531 20.375 27.082031 20.828125 26.765625 21.289062 C 26.738281 21.324219 26.710938 21.363281 26.6875 21.398438 C 26.636719 21.472656 26.585938 21.546875 26.535156 21.621094 C 26.480469 21.699219 26.425781 21.78125 26.371094 21.863281 C 26.199219 22.113281 26.023438 22.363281 25.851562 22.613281 C 25.722656 22.792969 25.597656 22.972656 25.476562 23.152344 C 25.355469 23.324219 25.238281 23.496094 25.117188 23.664062 C 24.984375 23.855469 24.851562 24.050781 24.71875 24.25 C 24.640625 24.367188 24.558594 24.484375 24.476562 24.601562 C 24.457031 24.625 24.441406 24.644531 24.425781 24.667969 C 24.347656 24.785156 24.265625 24.898438 24.179688 25.011719 C 24.148438 25.054688 24.117188 25.097656 24.085938 25.140625 C 24.070312 25.164062 24.054688 25.183594 24.039062 25.203125 C 23.964844 25.304688 23.9375 25.359375 23.9375 25.488281 C 23.945312 25.535156 23.957031 25.578125 23.96875 25.625 C 23.976562 25.652344 23.984375 25.683594 23.992188 25.710938 C 24.023438 25.824219 24.058594 25.933594 24.09375 26.042969 C 24.105469 26.089844 24.117188 26.132812 24.132812 26.175781 C 24.285156 26.671875 24.441406 27.167969 24.601562 27.664062 C 24.738281 28.101562 24.875 28.539062 25.003906 28.980469 C 25.128906 29.421875 25.269531 29.859375 25.410156 30.292969 C 25.90625 31.832031 25.90625 31.832031 25.90625 32 C 25.78125 31.980469 25.703125 31.917969 25.605469 31.835938 C 25.589844 31.824219 25.570312 31.808594 25.550781 31.796875 C 25.515625 31.765625 25.476562 31.734375 25.4375 31.707031 C 25.328125 31.617188 25.214844 31.53125 25.105469 31.445312 C 25.082031 31.425781 25.058594 31.410156 25.035156 31.390625 C 24.835938 31.234375 24.632812 31.085938 24.429688 30.9375 C 24.253906 30.804688 24.078125 30.671875 23.902344 30.539062 C 23.789062 30.453125 23.671875 30.371094 23.554688 30.292969 C 23.527344 30.273438 23.527344 30.273438 23.5 30.25 C 23.5 30.230469 23.5 30.207031 23.5 30.1875 C 23.484375 30.179688 23.464844 30.171875 23.445312 30.164062 C 23.191406 30.027344 22.964844 29.820312 22.738281 29.640625 C 22.515625 29.460938 22.285156 29.289062 22.050781 29.121094 C 21.753906 28.902344 21.460938 28.679688 21.167969 28.449219 C 21.035156 28.347656 20.902344 28.242188 20.765625 28.140625 C 20.585938 28.003906 20.402344 27.863281 20.226562 27.722656 C 20.015625 27.558594 19.808594 27.402344 19.59375 27.242188 C 19.570312 27.222656 19.542969 27.203125 19.515625 27.179688 C 19.324219 27.039062 19.210938 26.960938 18.964844 26.957031 C 18.941406 26.957031 18.914062 26.957031 18.886719 26.957031 C 18.800781 26.957031 18.710938 26.957031 18.625 26.957031 C 18.5625 26.957031 18.5 26.953125 18.4375 26.953125 C 18.230469 26.953125 18.023438 26.949219 17.820312 26.949219 C 17.765625 26.949219 17.765625 26.949219 17.710938 26.949219 C 17.382812 26.945312 17.050781 26.945312 16.71875 26.945312 C 16.296875 26.941406 15.871094 26.941406 15.449219 26.9375 C 15.152344 26.933594 14.855469 26.929688 14.554688 26.929688 C 14.378906 26.929688 14.199219 26.929688 14.023438 26.925781 C 13.855469 26.925781 13.6875 26.925781 13.519531 26.925781 C 13.460938 26.925781 13.398438 26.925781 13.335938 26.921875 C 12.902344 26.914062 12.65625 27.003906 12.332031 27.296875 C 12.253906 27.367188 12.167969 27.433594 12.082031 27.496094 C 11.96875 27.582031 11.855469 27.671875 11.742188 27.757812 C 11.492188 27.953125 11.242188 28.148438 10.988281 28.335938 C 10.832031 28.453125 10.675781 28.574219 10.519531 28.691406 C 10.179688 28.957031 9.839844 29.214844 9.492188 29.472656 C 9.222656 29.675781 8.953125 29.882812 8.6875 30.09375 C 8.355469 30.351562 8.023438 30.609375 7.6875 30.859375 C 7.382812 31.085938 7.082031 31.3125 6.785156 31.539062 C 6.757812 31.5625 6.730469 31.582031 6.703125 31.601562 C 6.675781 31.625 6.648438 31.644531 6.621094 31.664062 C 6.597656 31.683594 6.570312 31.703125 6.546875 31.722656 C 6.492188 31.761719 6.441406 31.804688 6.390625 31.84375 C 6.363281 31.863281 6.339844 31.886719 6.3125 31.90625 C 6.292969 31.921875 6.269531 31.941406 6.246094 31.960938 C 6.1875 32 6.1875 32 6.09375 32 C 6.132812 31.8125 6.179688 31.628906 6.238281 31.445312 C 6.246094 31.417969 6.253906 31.390625 6.261719 31.363281 C 6.390625 30.9375 6.527344 30.511719 6.660156 30.085938 C 6.820312 29.582031 6.980469 29.082031 7.125 28.574219 C 7.230469 28.222656 7.335938 27.875 7.445312 27.527344 C 7.464844 27.472656 7.480469 27.417969 7.5 27.363281 C 7.542969 27.234375 7.582031 27.101562 7.625 26.96875 C 7.601562 26.96875 7.578125 26.96875 7.554688 26.96875 C 6.984375 26.972656 6.410156 26.972656 5.839844 26.976562 C 5.5625 26.976562 5.289062 26.976562 5.011719 26.976562 C 4.769531 26.980469 4.53125 26.980469 4.289062 26.980469 C 4.160156 26.980469 4.035156 26.980469 3.90625 26.980469 C 3.785156 26.984375 3.664062 26.984375 3.546875 26.984375 C 3.5 26.984375 3.457031 26.984375 3.414062 26.984375 C 2.976562 26.988281 2.578125 26.914062 2.21875 26.65625 C 2.199219 26.640625 2.179688 26.628906 2.15625 26.613281 C 2.085938 26.5625 2.019531 26.511719 1.949219 26.460938 C 1.925781 26.445312 1.902344 26.425781 1.878906 26.410156 C 1.847656 26.386719 1.847656 26.386719 1.816406 26.363281 C 1.796875 26.347656 1.777344 26.335938 1.757812 26.320312 C 1.746094 26.308594 1.734375 26.292969 1.71875 26.28125 C 1.71875 26.261719 1.71875 26.238281 1.71875 26.21875 C 1.6875 26.207031 1.65625 26.199219 1.625 26.1875 C 1.578125 26.121094 1.578125 26.121094 1.53125 26.039062 C 1.511719 26.015625 1.496094 25.988281 1.480469 25.960938 C 1.292969 25.589844 1.351562 25.179688 1.46875 24.796875 C 1.492188 24.726562 1.515625 24.652344 1.539062 24.582031 C 1.558594 24.53125 1.574219 24.484375 1.589844 24.433594 C 1.609375 24.363281 1.632812 24.292969 1.65625 24.222656 C 1.707031 24.074219 1.75 23.925781 1.789062 23.773438 C 1.839844 23.589844 1.898438 23.410156 1.957031 23.226562 C 1.96875 23.183594 1.984375 23.136719 1.996094 23.09375 C 2.074219 22.847656 2.152344 22.601562 2.234375 22.355469 C 2.414062 21.796875 2.585938 21.234375 2.753906 20.675781 C 2.902344 20.171875 3.058594 19.671875 3.214844 19.171875 C 3.273438 18.992188 3.328125 18.8125 3.382812 18.632812 C 3.40625 18.558594 3.429688 18.484375 3.453125 18.410156 C 3.460938 18.382812 3.460938 18.382812 3.46875 18.351562 C 3.550781 18.085938 3.636719 17.820312 3.71875 17.554688 C 3.746094 17.464844 3.773438 17.375 3.800781 17.285156 C 3.890625 16.996094 3.980469 16.707031 4.074219 16.417969 C 4.089844 16.367188 4.105469 16.316406 4.125 16.265625 C 4.152344 16.171875 4.183594 16.078125 4.214844 15.980469 C 4.230469 15.941406 4.242188 15.898438 4.253906 15.855469 C 4.265625 15.820312 4.28125 15.78125 4.292969 15.746094 C 4.320312 15.65625 4.320312 15.65625 4.28125 15.5625 C 4.21875 15.519531 4.15625 15.480469 4.09375 15.4375 C 4.09375 15.417969 4.09375 15.394531 4.09375 15.375 C 4.070312 15.367188 4.046875 15.359375 4.023438 15.351562 C 3.929688 15.308594 3.867188 15.261719 3.789062 15.195312 C 3.644531 15.070312 3.492188 14.953125 3.34375 14.835938 C 3.148438 14.691406 2.960938 14.542969 2.769531 14.398438 C 2.597656 14.261719 2.425781 14.128906 2.246094 14.003906 C 2.128906 13.917969 2.015625 13.832031 1.898438 13.742188 C 1.714844 13.601562 1.53125 13.460938 1.347656 13.320312 C 1.3125 13.296875 1.3125 13.296875 1.28125 13.273438 C 1.175781 13.191406 1.175781 13.191406 1.0625 13.125 C 1.0625 13.105469 1.0625 13.082031 1.0625 13.0625 C 1.042969 13.054688 1.027344 13.046875 1.007812 13.035156 C 0.941406 13 0.886719 12.964844 0.824219 12.917969 C 0.726562 12.839844 0.625 12.765625 0.519531 12.6875 C 0.460938 12.644531 0.402344 12.601562 0.347656 12.558594 C 0.316406 12.535156 0.285156 12.515625 0.253906 12.492188 C 0.226562 12.472656 0.199219 12.449219 0.167969 12.425781 C 0.144531 12.410156 0.117188 12.390625 0.0898438 12.371094 C 0.03125 12.3125 0.03125 12.3125 0 12.1875 C 1.785156 12.1875 3.566406 12.1875 5.40625 12.1875 C 5.425781 12.074219 5.449219 11.960938 5.46875 11.84375 C 5.503906 11.726562 5.542969 11.613281 5.585938 11.496094 C 5.730469 11.074219 5.859375 10.648438 5.992188 10.21875 C 6 10.1875 6.011719 10.15625 6.019531 10.121094 C 6.128906 9.765625 6.238281 9.410156 6.34375 9.054688 C 6.394531 8.882812 6.449219 8.710938 6.503906 8.539062 C 6.507812 8.515625 6.515625 8.492188 6.523438 8.46875 C 6.578125 8.304688 6.65625 8.171875 6.75 8.03125 C 6.777344 7.992188 6.777344 7.992188 6.804688 7.949219 C 6.996094 7.75 7.25 7.632812 7.53125 7.617188 C 7.578125 7.617188 7.621094 7.617188 7.667969 7.617188 C 7.695312 7.617188 7.71875 7.617188 7.746094 7.617188 C 7.832031 7.617188 7.917969 7.617188 8 7.617188 C 8.0625 7.617188 8.125 7.617188 8.1875 7.617188 C 8.351562 7.617188 8.519531 7.617188 8.683594 7.617188 C 8.859375 7.617188 9.03125 7.617188 9.207031 7.621094 C 9.535156 7.621094 9.863281 7.621094 10.191406 7.621094 C 10.566406 7.621094 10.941406 7.621094 11.316406 7.621094 C 12.085938 7.621094 12.855469 7.625 13.625 7.625 C 13.632812 7.601562 13.636719 7.574219 13.644531 7.546875 C 13.652344 7.515625 13.660156 7.480469 13.667969 7.445312 C 13.675781 7.414062 13.683594 7.378906 13.695312 7.347656 C 13.726562 7.21875 13.765625 7.089844 13.808594 6.960938 C 13.816406 6.9375 13.824219 6.910156 13.832031 6.882812 C 13.859375 6.800781 13.886719 6.71875 13.914062 6.640625 C 14.027344 6.285156 14.136719 5.925781 14.242188 5.570312 C 14.335938 5.253906 14.429688 4.941406 14.53125 4.628906 C 14.535156 4.605469 14.542969 4.585938 14.550781 4.5625 C 14.585938 4.457031 14.617188 4.347656 14.652344 4.238281 C 14.726562 4.007812 14.796875 3.777344 14.871094 3.546875 C 14.878906 3.523438 14.882812 3.5 14.890625 3.476562 C 15.019531 3.078125 15.140625 2.671875 15.261719 2.269531 C 15.398438 1.800781 15.542969 1.335938 15.691406 0.871094 C 15.726562 0.765625 15.757812 0.660156 15.792969 0.550781 C 15.796875 0.53125 15.804688 0.507812 15.8125 0.484375 C 15.824219 0.441406 15.835938 0.398438 15.851562 0.355469 C 15.890625 0.230469 15.9375 0.117188 16 0 Z M 16 0 "/>
<path style=" stroke:none;fill-rule:nonzero;fill:rgb(0.392157%,18.82353%,86.666667%);fill-opacity:1;" d="M 16 0 C 16.066406 0.101562 16.101562 0.195312 16.136719 0.308594 C 16.144531 0.34375 16.144531 0.34375 16.15625 0.378906 C 16.179688 0.449219 16.203125 0.523438 16.226562 0.597656 C 16.242188 0.648438 16.257812 0.699219 16.273438 0.75 C 16.308594 0.859375 16.339844 0.964844 16.375 1.074219 C 16.417969 1.210938 16.460938 1.347656 16.503906 1.484375 C 16.65625 1.964844 16.808594 2.449219 16.949219 2.9375 C 17.027344 3.210938 17.113281 3.484375 17.199219 3.757812 C 17.207031 3.78125 17.214844 3.804688 17.222656 3.828125 C 17.292969 4.050781 17.363281 4.273438 17.433594 4.492188 C 17.480469 4.640625 17.527344 4.785156 17.574219 4.933594 C 17.582031 4.957031 17.589844 4.980469 17.597656 5.003906 C 17.707031 5.363281 17.816406 5.722656 17.917969 6.082031 C 18.011719 6.40625 18.113281 6.730469 18.21875 7.054688 C 18.242188 7.121094 18.265625 7.191406 18.289062 7.257812 C 18.308594 7.320312 18.328125 7.378906 18.347656 7.4375 C 18.375 7.53125 18.375 7.53125 18.375 7.625 C 18.410156 7.625 18.449219 7.625 18.488281 7.625 C 18.835938 7.621094 19.183594 7.621094 19.53125 7.621094 C 19.710938 7.621094 19.890625 7.617188 20.070312 7.617188 C 20.246094 7.617188 20.417969 7.617188 20.589844 7.617188 C 20.65625 7.617188 20.722656 7.617188 20.789062 7.613281 C 21.683594 7.609375 22.496094 7.796875 23.191406 8.394531 C 23.296875 8.480469 23.40625 8.5625 23.515625 8.648438 C 23.699219 8.78125 23.882812 8.921875 24.0625 9.0625 C 24.257812 9.214844 24.453125 9.363281 24.648438 9.511719 C 24.933594 9.722656 25.21875 9.941406 25.5 10.15625 C 25.523438 10.175781 25.550781 10.195312 25.574219 10.214844 C 25.898438 10.460938 26.21875 10.707031 26.539062 10.953125 C 26.574219 10.980469 26.609375 11.007812 26.640625 11.03125 C 26.660156 11.046875 26.675781 11.058594 26.695312 11.074219 C 26.808594 11.160156 26.921875 11.246094 27.039062 11.332031 C 27.332031 11.554688 27.570312 11.765625 27.75 12.09375 C 27.75 12.125 27.75 12.15625 27.75 12.1875 C 29.152344 12.1875 30.554688 12.1875 32 12.1875 C 31.96875 12.320312 31.960938 12.332031 31.859375 12.40625 C 31.839844 12.421875 31.816406 12.441406 31.792969 12.457031 C 31.769531 12.476562 31.742188 12.496094 31.71875 12.511719 C 31.695312 12.53125 31.667969 12.550781 31.640625 12.570312 C 31.589844 12.613281 31.535156 12.652344 31.484375 12.691406 C 31.390625 12.761719 31.296875 12.832031 31.207031 12.902344 C 31.160156 12.9375 31.117188 12.96875 31.074219 13.003906 C 30.914062 13.125 30.753906 13.25 30.59375 13.375 C 30.386719 13.535156 30.183594 13.691406 29.976562 13.847656 C 29.890625 13.910156 29.808594 13.972656 29.726562 14.035156 C 29.664062 14.085938 29.597656 14.132812 29.53125 14.175781 C 29.390625 14.265625 29.269531 14.367188 29.144531 14.476562 C 29.019531 14.582031 28.886719 14.675781 28.753906 14.769531 C 28.628906 14.863281 28.503906 14.960938 28.378906 15.058594 C 28.355469 15.078125 28.328125 15.097656 28.304688 15.117188 C 28.257812 15.152344 28.207031 15.191406 28.160156 15.230469 C 27.703125 15.585938 27.242188 15.933594 26.78125 16.28125 C 26.328125 16.621094 25.875 16.964844 25.429688 17.316406 C 25.398438 17.339844 25.398438 17.339844 25.367188 17.363281 C 25.320312 17.402344 25.269531 17.441406 25.222656 17.480469 C 25.15625 17.53125 25.15625 17.53125 25.09375 17.53125 C 25.210938 17.65625 25.34375 17.75 25.484375 17.851562 C 25.710938 18.019531 25.9375 18.1875 26.164062 18.355469 C 26.1875 18.378906 26.214844 18.398438 26.242188 18.417969 C 26.730469 18.789062 27.097656 19.183594 27.203125 19.804688 C 27.269531 20.375 27.082031 20.828125 26.765625 21.289062 C 26.738281 21.324219 26.710938 21.363281 26.6875 21.398438 C 26.636719 21.472656 26.585938 21.546875 26.535156 21.621094 C 26.480469 21.699219 26.425781 21.78125 26.371094 21.863281 C 26.199219 22.113281 26.023438 22.363281 25.851562 22.613281 C 25.722656 22.792969 25.597656 22.972656 25.476562 23.152344 C 25.355469 23.324219 25.238281 23.496094 25.117188 23.664062 C 24.984375 23.855469 24.851562 24.050781 24.71875 24.25 C 24.640625 24.367188 24.558594 24.484375 24.476562 24.601562 C 24.457031 24.625 24.441406 24.644531 24.425781 24.667969 C 24.347656 24.785156 24.265625 24.898438 24.179688 25.011719 C 24.148438 25.054688 24.117188 25.097656 24.085938 25.140625 C 24.070312 25.164062 24.054688 25.183594 24.039062 25.203125 C 23.964844 25.304688 23.9375 25.359375 23.9375 25.488281 C 23.945312 25.535156 23.957031 25.578125 23.96875 25.625 C 23.976562 25.652344 23.984375 25.683594 23.992188 25.710938 C 24.023438 25.824219 24.058594 25.933594 24.09375 26.042969 C 24.105469 26.089844 24.117188 26.132812 24.132812 26.175781 C 24.285156 26.671875 24.441406 27.167969 24.601562 27.664062 C 24.738281 28.101562 24.875 28.539062 25.003906 28.980469 C 25.128906 29.421875 25.269531 29.859375 25.410156 30.292969 C 25.90625 31.832031 25.90625 31.832031 25.90625 32 C 25.78125 31.980469 25.703125 31.917969 25.605469 31.835938 C 25.589844 31.824219 25.570312 31.808594 25.550781 31.796875 C 25.515625 31.765625 25.476562 31.734375 25.4375 31.707031 C 25.328125 31.617188 25.214844 31.53125 25.105469 31.445312 C 25.082031 31.425781 25.058594 31.410156 25.035156 31.390625 C 24.835938 31.234375 24.632812 31.085938 24.429688 30.9375 C 24.253906 30.804688 24.078125 30.671875 23.902344 30.539062 C 23.789062 30.453125 23.671875 30.371094 23.554688 30.292969 C 23.527344 30.273438 23.527344 30.273438 23.5 30.25 C 23.5 30.230469 23.5 30.207031 23.5 30.1875 C 23.484375 30.179688 23.464844 30.171875 23.445312 30.164062 C 23.191406 30.027344 22.964844 29.820312 22.738281 29.640625 C 22.515625 29.460938 22.285156 29.289062 22.050781 29.121094 C 21.753906 28.902344 21.460938 28.679688 21.167969 28.449219 C 21.035156 28.347656 20.902344 28.242188 20.765625 28.140625 C 20.585938 28.003906 20.402344 27.863281 20.226562 27.722656 C 20.015625 27.558594 19.808594 27.402344 19.59375 27.242188 C 19.570312 27.222656 19.542969 27.203125 19.515625 27.179688 C 19.324219 27.039062 19.210938 26.960938 18.964844 26.957031 C 18.941406 26.957031 18.914062 26.957031 18.886719 26.957031 C 18.800781 26.957031 18.710938 26.957031 18.625 26.957031 C 18.5625 26.957031 18.5 26.953125 18.4375 26.953125 C 18.230469 26.953125 18.023438 26.949219 17.820312 26.949219 C 17.765625 26.949219 17.765625 26.949219 17.710938 26.949219 C 17.382812 26.945312 17.050781 26.945312 16.71875 26.945312 C 16.296875 26.941406 15.871094 26.941406 15.449219 26.9375 C 15.152344 26.933594 14.855469 26.929688 14.554688 26.929688 C 14.378906 26.929688 14.199219 26.929688 14.023438 26.925781 C 13.855469 26.925781 13.6875 26.925781 13.519531 26.925781 C 13.460938 26.925781 13.398438 26.925781 13.335938 26.921875 C 12.902344 26.914062 12.65625 27.003906 12.332031 27.296875 C 12.253906 27.367188 12.167969 27.433594 12.082031 27.496094 C 11.96875 27.582031 11.855469 27.671875 11.742188 27.757812 C 11.492188 27.953125 11.242188 28.148438 10.988281 28.335938 C 10.832031 28.453125 10.675781 28.574219 10.519531 28.691406 C 10.179688 28.957031 9.839844 29.214844 9.492188 29.472656 C 9.222656 29.675781 8.953125 29.882812 8.6875 30.09375 C 8.355469 30.351562 8.023438 30.609375 7.6875 30.859375 C 7.382812 31.085938 7.082031 31.3125 6.785156 31.539062 C 6.757812 31.5625 6.730469 31.582031 6.703125 31.601562 C 6.675781 31.625 6.648438 31.644531 6.621094 31.664062 C 6.597656 31.683594 6.570312 31.703125 6.546875 31.722656 C 6.492188 31.761719 6.441406 31.804688 6.390625 31.84375 C 6.363281 31.863281 6.339844 31.886719 6.3125 31.90625 C 6.292969 31.921875 6.269531 31.941406 6.246094 31.960938 C 6.1875 32 6.1875 32 6.09375 32 C 6.132812 31.8125 6.179688 31.628906 6.238281 31.445312 C 6.246094 31.417969 6.253906 31.390625 6.261719 31.363281 C 6.390625 30.9375 6.527344 30.511719 6.660156 30.085938 C 6.820312 29.582031 6.980469 29.082031 7.125 28.574219 C 7.230469 28.222656 7.335938 27.875 7.445312 27.527344 C 7.464844 27.472656 7.480469 27.417969 7.5 27.363281 C 7.542969 27.234375 7.582031 27.101562 7.625 26.96875 C 7.601562 26.96875 7.578125 26.96875 7.554688 26.96875 C 6.984375 26.972656 6.410156 26.972656 5.839844 26.976562 C 5.5625 26.976562 5.289062 26.976562 5.011719 26.976562 C 4.769531 26.980469 4.53125 26.980469 4.289062 26.980469 C 4.160156 26.980469 4.035156 26.980469 3.90625 26.980469 C 3.785156 26.984375 3.664062 26.984375 3.546875 26.984375 C 3.5 26.984375 3.457031 26.984375 3.414062 26.984375 C 2.976562 26.988281 2.578125 26.914062 2.21875 26.65625 C 2.199219 26.640625 2.179688 26.628906 2.15625 26.613281 C 2.085938 26.5625 2.019531 26.511719 1.949219 26.460938 C 1.925781 26.445312 1.902344 26.425781 1.878906 26.410156 C 1.847656 26.386719 1.847656 26.386719 1.816406 26.363281 C 1.796875 26.347656 1.777344 26.335938 1.757812 26.320312 C 1.746094 26.308594 1.734375 26.292969 1.71875 26.28125 C 1.71875 26.261719 1.71875 26.238281 1.71875 26.21875 C 1.6875 26.207031 1.65625 26.199219 1.625 26.1875 C 1.578125 26.121094 1.578125 26.121094 1.53125 26.039062 C 1.511719 26.015625 1.496094 25.988281 1.480469 25.960938 C 1.292969 25.589844 1.351562 25.179688 1.46875 24.796875 C 1.492188 24.726562 1.515625 24.652344 1.539062 24.582031 C 1.558594 24.53125 1.574219 24.484375 1.589844 24.433594 C 1.609375 24.363281 1.632812 24.292969 1.65625 24.222656 C 1.707031 24.074219 1.75 23.925781 1.789062 23.773438 C 1.839844 23.589844 1.898438 23.410156 1.957031 23.226562 C 1.96875 23.183594 1.984375 23.136719 1.996094 23.09375 C 2.074219 22.847656 2.152344 22.601562 2.234375 22.355469 C 2.414062 21.796875 2.585938 21.234375 2.753906 20.675781 C 2.902344 20.171875 3.058594 19.671875 3.214844 19.171875 C 3.273438 18.992188 3.328125 18.8125 3.382812 18.632812 C 3.40625 18.558594 3.429688 18.484375 3.453125 18.410156 C 3.460938 18.382812 3.460938 18.382812 3.46875 18.351562 C 3.550781 18.085938 3.636719 17.820312 3.71875 17.554688 C 3.746094 17.464844 3.773438 17.375 3.800781 17.285156 C 3.890625 16.996094 3.980469 16.707031 4.074219 16.417969 C 4.089844 16.367188 4.105469 16.316406 4.125 16.265625 C 4.152344 16.171875 4.183594 16.078125 4.214844 15.980469 C 4.230469 15.941406 4.242188 15.898438 4.253906 15.855469 C 4.265625 15.820312 4.28125 15.78125 4.292969 15.746094 C 4.320312 15.65625 4.320312 15.65625 4.28125 15.5625 C 4.21875 15.519531 4.15625 15.480469 4.09375 15.4375 C 4.09375 15.417969 4.09375 15.394531 4.09375 15.375 C 4.070312 15.367188 4.046875 15.359375 4.023438 15.351562 C 3.929688 15.308594 3.867188 15.261719 3.789062 15.195312 C 3.644531 15.070312 3.492188 14.953125 3.34375 14.835938 C 3.148438 14.691406 2.960938 14.542969 2.769531 14.398438 C 2.597656 14.261719 2.425781 14.128906 2.246094 14.003906 C 2.128906 13.917969 2.015625 13.832031 1.898438 13.742188 C 1.714844 13.601562 1.53125 13.460938 1.347656 13.320312 C 1.3125 13.296875 1.3125 13.296875 1.28125 13.273438 C 1.175781 13.191406 1.175781 13.191406 1.0625 13.125 C 1.0625 13.105469 1.0625 13.082031 1.0625 13.0625 C 1.042969 13.054688 1.027344 13.046875 1.007812 13.035156 C 0.941406 13 0.886719 12.964844 0.824219 12.917969 C 0.726562 12.839844 0.625 12.765625 0.519531 12.6875 C 0.460938 12.644531 0.402344 12.601562 0.347656 12.558594 C 0.316406 12.535156 0.285156 12.515625 0.253906 12.492188 C 0.226562 12.472656 0.199219 12.449219 0.167969 12.425781 C 0.144531 12.410156 0.117188 12.390625 0.0898438 12.371094 C 0.03125 12.3125 0.03125 12.3125 0 12.1875 C 1.785156 12.1875 3.566406 12.1875 5.40625 12.1875 C 5.425781 12.074219 5.449219 11.960938 5.46875 11.84375 C 5.503906 11.726562 5.542969 11.613281 5.585938 11.496094 C 5.730469 11.074219 5.859375 10.648438 5.992188 10.21875 C 6 10.1875 6.011719 10.15625 6.019531 10.121094 C 6.128906 9.765625 6.238281 9.410156 6.34375 9.054688 C 6.394531 8.882812 6.449219 8.710938 6.503906 8.539062 C 6.507812 8.515625 6.515625 8.492188 6.523438 8.46875 C 6.578125 8.304688 6.65625 8.171875 6.75 8.03125 C 6.777344 7.992188 6.777344 7.992188 6.804688 7.949219 C 6.996094 7.75 7.25 7.632812 7.53125 7.617188 C 7.578125 7.617188 7.621094 7.617188 7.667969 7.617188 C 7.695312 7.617188 7.71875 7.617188 7.746094 7.617188 C 7.832031 7.617188 7.917969 7.617188 8 7.617188 C 8.0625 7.617188 8.125 7.617188 8.1875 7.617188 C 8.351562 7.617188 8.519531 7.617188 8.683594 7.617188 C 8.859375 7.617188 9.03125 7.617188 9.207031 7.621094 C 9.535156 7.621094 9.863281 7.621094 10.191406 7.621094 C 10.566406 7.621094 10.941406 7.621094 11.316406 7.621094 C 12.085938 7.621094 12.855469 7.625 13.625 7.625 C 13.632812 7.601562 13.636719 7.574219 13.644531 7.546875 C 13.652344 7.515625 13.660156 7.480469 13.667969 7.445312 C 13.675781 7.414062 13.683594 7.378906 13.695312 7.347656 C 13.726562 7.21875 13.765625 7.089844 13.808594 6.960938 C 13.816406 6.9375 13.824219 6.910156 13.832031 6.882812 C 13.859375 6.800781 13.886719 6.71875 13.914062 6.640625 C 14.027344 6.285156 14.136719 5.925781 14.242188 5.570312 C 14.335938 5.253906 14.429688 4.941406 14.53125 4.628906 C 14.535156 4.605469 14.542969 4.585938 14.550781 4.5625 C 14.585938 4.457031 14.617188 4.347656 14.652344 4.238281 C 14.726562 4.007812 14.796875 3.777344 14.871094 3.546875 C 14.878906 3.523438 14.882812 3.5 14.890625 3.476562 C 15.019531 3.078125 15.140625 2.671875 15.261719 2.269531 C 15.398438 1.800781 15.542969 1.335938 15.691406 0.871094 C 15.726562 0.765625 15.757812 0.660156 15.792969 0.550781 C 15.796875 0.53125 15.804688 0.507812 15.8125 0.484375 C 15.824219 0.441406 15.835938 0.398438 15.851562 0.355469 C 15.890625 0.230469 15.9375 0.117188 16 0 Z M 7.28125 8.59375 C 7.246094 8.679688 7.246094 8.679688 7.226562 8.773438 C 7.171875 8.976562 7.113281 9.167969 7.046875 9.367188 C 6.738281 10.261719 6.738281 10.261719 6.484375 11.171875 C 6.417969 11.445312 6.332031 11.707031 6.246094 11.96875 C 6.238281 11.992188 6.230469 12.015625 6.222656 12.039062 C 6.15625 12.25 6.085938 12.464844 6.015625 12.675781 C 5.976562 12.796875 5.9375 12.914062 5.898438 13.035156 C 5.875 13.097656 5.855469 13.164062 5.832031 13.230469 C 5.753906 13.464844 5.695312 13.695312 5.644531 13.9375 C 5.625 14.035156 5.59375 14.125 5.558594 14.214844 C 5.496094 14.367188 5.453125 14.523438 5.402344 14.679688 C 5.378906 14.757812 5.351562 14.835938 5.328125 14.914062 C 5.316406 14.953125 5.300781 14.996094 5.289062 15.035156 C 5.238281 15.191406 5.1875 15.347656 5.136719 15.503906 C 5.089844 15.648438 5.046875 15.792969 5 15.9375 C 4.972656 16.019531 4.945312 16.097656 4.921875 16.179688 C 4.859375 16.371094 4.804688 16.558594 4.757812 16.753906 C 4.691406 17.046875 4.589844 17.332031 4.492188 17.617188 C 4.410156 17.867188 4.328125 18.117188 4.253906 18.371094 C 4.214844 18.503906 4.171875 18.636719 4.128906 18.765625 C 4.117188 18.796875 4.109375 18.824219 4.097656 18.855469 C 4.078125 18.910156 4.058594 18.964844 4.039062 19.019531 C 3.976562 19.203125 3.949219 19.371094 3.9375 19.5625 C 3.917969 19.5625 3.894531 19.5625 3.875 19.5625 C 3.867188 19.59375 3.859375 19.625 3.851562 19.660156 C 3.796875 19.882812 3.742188 20.101562 3.65625 20.316406 C 3.625 20.40625 3.59375 20.5 3.566406 20.59375 C 3.554688 20.628906 3.546875 20.664062 3.535156 20.699219 C 3.523438 20.738281 3.511719 20.773438 3.5 20.8125 C 3.457031 20.957031 3.410156 21.101562 3.367188 21.246094 C 3.351562 21.289062 3.339844 21.328125 3.328125 21.367188 C 3.269531 21.550781 3.214844 21.734375 3.152344 21.921875 C 3.144531 21.953125 3.132812 21.980469 3.125 22.015625 C 3.105469 22.070312 3.085938 22.125 3.070312 22.183594 C 3.03125 22.304688 2.996094 22.421875 2.96875 22.546875 C 2.9375 22.699219 2.890625 22.851562 2.839844 23 C 2.820312 23.0625 2.800781 23.121094 2.78125 23.183594 C 2.765625 23.230469 2.765625 23.230469 2.75 23.277344 C 2.71875 23.375 2.6875 23.472656 2.65625 23.566406 C 2.636719 23.632812 2.617188 23.695312 2.597656 23.761719 C 2.585938 23.792969 2.574219 23.824219 2.566406 23.859375 C 2.511719 24.027344 2.457031 24.195312 2.398438 24.363281 C 2.386719 24.398438 2.375 24.433594 2.363281 24.46875 C 2.339844 24.53125 2.316406 24.597656 2.296875 24.660156 C 2.238281 24.820312 2.207031 24.953125 2.21875 25.125 C 2.199219 25.125 2.175781 25.125 2.15625 25.125 C 2.097656 25.300781 2.105469 25.460938 2.179688 25.628906 C 2.257812 25.75 2.378906 25.820312 2.496094 25.898438 C 2.519531 25.917969 2.546875 25.9375 2.570312 25.953125 C 2.804688 26.117188 2.964844 26.164062 3.246094 26.164062 C 3.277344 26.164062 3.308594 26.164062 3.339844 26.164062 C 3.445312 26.164062 3.550781 26.164062 3.65625 26.164062 C 3.730469 26.164062 3.808594 26.164062 3.882812 26.164062 C 4.050781 26.164062 4.214844 26.164062 4.382812 26.164062 C 4.628906 26.164062 4.875 26.167969 5.121094 26.167969 C 5.613281 26.167969 6.105469 26.167969 6.597656 26.167969 C 6.636719 26.167969 6.636719 26.167969 6.675781 26.167969 C 6.703125 26.167969 6.726562 26.167969 6.753906 26.167969 C 7.035156 26.167969 7.320312 26.167969 7.601562 26.167969 C 8.457031 26.167969 9.3125 26.167969 10.167969 26.167969 C 10.210938 26.167969 10.210938 26.167969 10.25 26.167969 C 10.363281 26.167969 10.472656 26.167969 10.582031 26.167969 C 10.667969 26.167969 10.75 26.167969 10.835938 26.167969 C 10.875 26.167969 10.875 26.167969 10.917969 26.167969 C 11.785156 26.167969 12.648438 26.171875 13.515625 26.171875 C 14.488281 26.171875 15.460938 26.171875 16.433594 26.171875 C 16.539062 26.171875 16.640625 26.171875 16.746094 26.171875 C 16.769531 26.171875 16.796875 26.171875 16.824219 26.171875 C 17.234375 26.171875 17.644531 26.175781 18.054688 26.175781 C 18.46875 26.175781 18.882812 26.175781 19.296875 26.175781 C 19.539062 26.175781 19.785156 26.175781 20.03125 26.175781 C 20.214844 26.175781 20.398438 26.175781 20.582031 26.175781 C 20.65625 26.175781 20.730469 26.175781 20.804688 26.175781 C 21.585938 26.179688 22.25 26.035156 22.84375 25.5 C 22.863281 25.484375 22.882812 25.46875 22.898438 25.449219 C 23.171875 25.203125 23.363281 24.863281 23.5625 24.558594 C 23.671875 24.398438 23.78125 24.242188 23.898438 24.085938 C 24.023438 23.910156 24.144531 23.738281 24.257812 23.554688 C 24.363281 23.390625 24.476562 23.238281 24.589844 23.082031 C 24.71875 22.902344 24.84375 22.71875 24.96875 22.53125 C 25.082031 22.363281 25.195312 22.195312 25.3125 22.03125 C 25.4375 21.855469 25.5625 21.675781 25.6875 21.5 C 25.707031 21.472656 25.707031 21.472656 25.726562 21.445312 C 25.808594 21.328125 25.890625 21.210938 25.96875 21.09375 C 25.984375 21.074219 25.996094 21.050781 26.011719 21.03125 C 26.390625 20.472656 26.390625 20.472656 26.4375 19.8125 C 26.273438 19.296875 25.757812 19.019531 25.34375 18.71875 C 25.265625 18.660156 25.1875 18.605469 25.109375 18.546875 C 25.089844 18.535156 25.070312 18.519531 25.050781 18.503906 C 24.875 18.375 24.703125 18.242188 24.53125 18.105469 C 24.285156 17.914062 24.035156 17.734375 23.785156 17.550781 C 23.679688 17.472656 23.574219 17.390625 23.46875 17.3125 C 23.488281 17.3125 23.503906 17.3125 23.523438 17.3125 C 23.914062 17.3125 24.230469 17.308594 24.535156 17.035156 C 24.714844 16.847656 24.851562 16.617188 24.996094 16.398438 C 25.058594 16.300781 25.128906 16.203125 25.195312 16.109375 C 25.257812 16.019531 25.320312 15.929688 25.382812 15.839844 C 25.476562 15.703125 25.570312 15.566406 25.667969 15.429688 C 25.800781 15.242188 25.933594 15.054688 26.058594 14.867188 C 26.234375 14.597656 26.417969 14.335938 26.601562 14.078125 C 26.695312 13.945312 26.785156 13.816406 26.875 13.6875 C 26.886719 13.667969 26.902344 13.648438 26.917969 13.628906 C 26.980469 13.542969 26.980469 13.542969 27 13.4375 C 27.019531 13.4375 27.042969 13.4375 27.0625 13.4375 C 27.171875 13.164062 27.222656 12.824219 27.125 12.535156 C 27.089844 12.46875 27.046875 12.40625 27 12.34375 C 26.976562 12.3125 26.957031 12.28125 26.933594 12.246094 C 26.835938 12.136719 26.710938 12.054688 26.589844 11.96875 C 26.507812 11.910156 26.425781 11.847656 26.347656 11.785156 C 26.179688 11.648438 26.007812 11.515625 25.832031 11.382812 C 25.75 11.320312 25.667969 11.253906 25.585938 11.191406 C 25.347656 11.011719 25.113281 10.832031 24.875 10.65625 C 24.519531 10.390625 24.167969 10.125 23.820312 9.851562 C 23.773438 9.816406 23.730469 9.785156 23.6875 9.75 C 23.664062 9.730469 23.640625 9.714844 23.617188 9.695312 C 23.59375 9.675781 23.570312 9.660156 23.546875 9.640625 C 23.527344 9.628906 23.507812 9.613281 23.488281 9.597656 C 23.4375 9.558594 23.4375 9.558594 23.375 9.5625 C 23.363281 9.53125 23.355469 9.5 23.34375 9.46875 C 23.3125 9.46875 23.28125 9.46875 23.25 9.46875 C 23.238281 9.4375 23.230469 9.40625 23.21875 9.375 C 23.152344 9.320312 23.085938 9.273438 23.015625 9.226562 C 22.972656 9.195312 22.933594 9.167969 22.890625 9.140625 C 22.863281 9.121094 22.863281 9.121094 22.832031 9.097656 C 22.773438 9.054688 22.714844 9.011719 22.65625 8.964844 C 22.203125 8.628906 21.753906 8.433594 21.1875 8.433594 C 21.164062 8.433594 21.140625 8.433594 21.117188 8.433594 C 21.035156 8.433594 20.957031 8.433594 20.878906 8.433594 C 20.820312 8.433594 20.761719 8.433594 20.703125 8.433594 C 20.542969 8.433594 20.386719 8.433594 20.226562 8.429688 C 20.054688 8.429688 19.882812 8.429688 19.714844 8.429688 C 19.300781 8.429688 18.886719 8.429688 18.472656 8.429688 C 18.355469 8.429688 18.238281 8.429688 18.125 8.429688 C 17.398438 8.429688 16.671875 8.425781 15.949219 8.425781 C 15.78125 8.425781 15.613281 8.425781 15.445312 8.425781 C 15.425781 8.425781 15.402344 8.425781 15.382812 8.425781 C 14.707031 8.425781 14.03125 8.425781 13.355469 8.425781 C 12.640625 8.421875 11.921875 8.421875 11.207031 8.421875 C 10.820312 8.421875 10.429688 8.421875 10.039062 8.421875 C 9.707031 8.417969 9.375 8.417969 9.042969 8.417969 C 8.875 8.417969 8.707031 8.417969 8.535156 8.417969 C 8.382812 8.417969 8.226562 8.417969 8.070312 8.417969 C 8.015625 8.417969 7.960938 8.417969 7.902344 8.417969 C 7.828125 8.417969 7.75 8.417969 7.675781 8.417969 C 7.652344 8.417969 7.628906 8.417969 7.609375 8.417969 C 7.445312 8.417969 7.378906 8.46875 7.28125 8.59375 Z M 7.28125 8.59375 "/>
<path style=" stroke:none;fill-rule:nonzero;fill:rgb(0%,18.82353%,86.666667%);fill-opacity:1;" d="M 10.0625 19.1875 C 11.164062 19.183594 12.261719 19.183594 13.363281 19.183594 C 13.492188 19.183594 13.621094 19.183594 13.753906 19.183594 C 13.777344 19.183594 13.804688 19.183594 13.832031 19.183594 C 14.25 19.183594 14.667969 19.179688 15.085938 19.179688 C 15.515625 19.179688 15.945312 19.179688 16.375 19.179688 C 16.640625 19.179688 16.90625 19.179688 17.171875 19.175781 C 17.351562 19.175781 17.535156 19.175781 17.714844 19.175781 C 17.820312 19.175781 17.925781 19.175781 18.03125 19.175781 C 18.144531 19.175781 18.257812 19.175781 18.371094 19.175781 C 18.421875 19.175781 18.421875 19.175781 18.472656 19.175781 C 18.746094 19.175781 18.746094 19.175781 18.875 19.28125 C 18.894531 19.296875 18.914062 19.308594 18.9375 19.324219 C 18.957031 19.339844 18.972656 19.351562 18.992188 19.367188 C 19.015625 19.382812 19.035156 19.398438 19.058594 19.417969 C 19.082031 19.433594 19.101562 19.449219 19.125 19.46875 C 19.148438 19.484375 19.167969 19.5 19.191406 19.515625 C 19.523438 19.769531 19.523438 19.769531 19.5625 19.84375 C 19.578125 20 19.546875 20.074219 19.460938 20.199219 C 19.425781 20.246094 19.425781 20.246094 19.390625 20.296875 C 19.371094 20.324219 19.371094 20.324219 19.351562 20.351562 C 19.296875 20.429688 19.242188 20.511719 19.1875 20.589844 C 19.113281 20.695312 19.042969 20.800781 18.96875 20.90625 C 18.945312 20.9375 18.921875 20.972656 18.898438 21.007812 C 18.828125 21.109375 18.757812 21.210938 18.6875 21.3125 C 18.671875 21.335938 18.652344 21.363281 18.636719 21.386719 C 18.578125 21.46875 18.519531 21.550781 18.460938 21.632812 C 18.445312 21.660156 18.425781 21.6875 18.40625 21.714844 C 18.324219 21.835938 18.234375 21.957031 18.148438 22.078125 C 18.132812 22.097656 18.117188 22.117188 18.105469 22.136719 C 18.015625 22.242188 17.914062 22.285156 17.78125 22.3125 C 17.730469 22.316406 17.679688 22.316406 17.628906 22.316406 C 17.601562 22.316406 17.570312 22.316406 17.539062 22.316406 C 17.503906 22.316406 17.472656 22.316406 17.4375 22.316406 C 17.402344 22.316406 17.367188 22.316406 17.332031 22.316406 C 17.210938 22.316406 17.089844 22.316406 16.972656 22.316406 C 16.886719 22.316406 16.800781 22.316406 16.714844 22.316406 C 16.53125 22.316406 16.347656 22.316406 16.164062 22.316406 C 15.898438 22.316406 15.632812 22.316406 15.367188 22.316406 C 14.9375 22.316406 14.503906 22.316406 14.074219 22.316406 C 13.65625 22.316406 13.234375 22.3125 12.816406 22.3125 C 12.777344 22.3125 12.777344 22.3125 12.738281 22.3125 C 12.609375 22.3125 12.480469 22.3125 12.347656 22.3125 C 11.273438 22.3125 10.199219 22.3125 9.125 22.3125 C 9.140625 22.257812 9.152344 22.203125 9.167969 22.152344 C 9.175781 22.121094 9.183594 22.089844 9.191406 22.058594 C 9.234375 21.914062 9.28125 21.773438 9.328125 21.628906 C 9.398438 21.410156 9.460938 21.195312 9.507812 20.972656 C 9.570312 20.714844 9.65625 20.464844 9.742188 20.214844 C 9.75 20.1875 9.757812 20.160156 9.769531 20.132812 C 9.785156 20.078125 9.804688 20.027344 9.824219 19.972656 C 9.882812 19.796875 9.9375 19.621094 9.988281 19.441406 C 9.996094 19.417969 10.003906 19.394531 10.011719 19.367188 C 10.027344 19.308594 10.046875 19.246094 10.0625 19.1875 Z M 10.0625 19.1875 "/>
<path style=" stroke:none;fill-rule:nonzero;fill:rgb(0%,18.82353%,86.666667%);fill-opacity:1;" d="M 12.453125 12.242188 C 12.484375 12.242188 12.511719 12.242188 12.542969 12.242188 C 12.570312 12.242188 12.601562 12.242188 12.632812 12.238281 C 12.738281 12.238281 12.839844 12.238281 12.941406 12.238281 C 13.015625 12.238281 13.089844 12.238281 13.164062 12.238281 C 13.386719 12.238281 13.605469 12.234375 13.828125 12.234375 C 13.933594 12.234375 14.039062 12.234375 14.140625 12.234375 C 14.488281 12.234375 14.835938 12.230469 15.183594 12.230469 C 15.273438 12.230469 15.363281 12.230469 15.453125 12.230469 C 15.476562 12.230469 15.5 12.230469 15.519531 12.230469 C 15.882812 12.230469 16.246094 12.230469 16.609375 12.226562 C 16.980469 12.226562 17.351562 12.222656 17.726562 12.222656 C 17.933594 12.222656 18.144531 12.222656 18.351562 12.222656 C 18.546875 12.21875 18.746094 12.21875 18.941406 12.21875 C 19.015625 12.21875 19.085938 12.21875 19.160156 12.21875 C 19.816406 12.210938 19.816406 12.210938 20.058594 12.433594 C 20.082031 12.457031 20.101562 12.476562 20.125 12.5 C 20.152344 12.523438 20.179688 12.542969 20.210938 12.566406 C 20.28125 12.625 20.28125 12.625 20.3125 12.6875 C 20.324219 12.835938 20.304688 12.910156 20.21875 13.03125 C 20.199219 13.058594 20.179688 13.085938 20.160156 13.117188 C 20.140625 13.144531 20.117188 13.175781 20.09375 13.203125 C 20.074219 13.234375 20.050781 13.265625 20.03125 13.296875 C 19.988281 13.359375 19.945312 13.421875 19.902344 13.480469 C 19.832031 13.578125 19.765625 13.675781 19.695312 13.773438 C 19.625 13.882812 19.546875 13.988281 19.472656 14.09375 C 19.441406 14.140625 19.410156 14.183594 19.375 14.230469 C 19.351562 14.265625 19.351562 14.265625 19.328125 14.296875 C 19.222656 14.445312 19.121094 14.597656 19.019531 14.75 C 18.984375 14.804688 18.945312 14.863281 18.910156 14.917969 C 18.878906 14.964844 18.847656 15.011719 18.816406 15.054688 C 18.800781 15.082031 18.78125 15.105469 18.761719 15.128906 C 18.75 15.152344 18.734375 15.171875 18.71875 15.191406 C 18.480469 15.40625 18.1875 15.390625 17.882812 15.390625 C 17.835938 15.390625 17.785156 15.390625 17.738281 15.390625 C 17.628906 15.390625 17.523438 15.390625 17.417969 15.390625 C 17.25 15.386719 17.085938 15.386719 16.917969 15.390625 C 16.5 15.390625 16.085938 15.390625 15.667969 15.386719 C 15.34375 15.386719 15.023438 15.386719 14.699219 15.386719 C 14.53125 15.386719 14.367188 15.386719 14.199219 15.386719 C 14.097656 15.386719 13.992188 15.386719 13.886719 15.386719 C 13.839844 15.386719 13.792969 15.386719 13.746094 15.386719 C 13.324219 15.382812 13.011719 15.484375 12.679688 15.746094 C 12.648438 15.769531 12.648438 15.769531 12.617188 15.796875 C 12.558594 15.84375 12.496094 15.890625 12.4375 15.9375 C 12.382812 15.980469 12.324219 16.027344 12.269531 16.070312 C 12.25 16.085938 12.226562 16.105469 12.207031 16.121094 C 12.15625 16.15625 12.15625 16.15625 12.09375 16.15625 C 12.09375 16.175781 12.09375 16.199219 12.09375 16.21875 C 12.039062 16.265625 12.039062 16.265625 11.957031 16.320312 C 11.761719 16.457031 11.574219 16.601562 11.390625 16.75 C 11.324219 16.800781 11.253906 16.855469 11.1875 16.90625 C 11.167969 16.921875 11.144531 16.9375 11.125 16.953125 C 10.980469 17.0625 10.980469 17.0625 10.875 17.054688 C 10.855469 17.046875 10.835938 17.039062 10.8125 17.03125 C 10.769531 16.890625 10.796875 16.804688 10.84375 16.667969 C 10.851562 16.648438 10.859375 16.628906 10.863281 16.605469 C 10.886719 16.542969 10.910156 16.480469 10.929688 16.417969 C 11.0625 16.054688 11.0625 16.054688 11.140625 15.675781 C 11.160156 15.582031 11.191406 15.5 11.226562 15.410156 C 11.265625 15.300781 11.300781 15.191406 11.335938 15.078125 C 11.34375 15.054688 11.351562 15.03125 11.359375 15.003906 C 11.382812 14.925781 11.40625 14.847656 11.429688 14.769531 C 11.464844 14.667969 11.496094 14.566406 11.527344 14.460938 C 11.535156 14.4375 11.542969 14.410156 11.550781 14.386719 C 11.59375 14.257812 11.632812 14.128906 11.679688 14 C 11.6875 13.976562 11.695312 13.949219 11.703125 13.925781 C 11.71875 13.875 11.738281 13.828125 11.753906 13.78125 C 11.800781 13.644531 11.824219 13.519531 11.84375 13.375 C 11.878906 13.285156 11.878906 13.285156 11.917969 13.195312 C 11.988281 13.039062 12.035156 12.882812 12.074219 12.714844 C 12.09375 12.625 12.117188 12.539062 12.140625 12.449219 C 12.148438 12.425781 12.15625 12.398438 12.164062 12.375 C 12.21875 12.226562 12.3125 12.242188 12.453125 12.242188 Z M 12.453125 12.242188 "/>
</g>
</svg>
